<?xml version="1.0" encoding="UTF-8" standalone="no"?>
<svg width="142px" height="125px" viewBox="0 0 142 125" version="1.1" xmlns="http://www.w3.org/2000/svg" xmlns:xlink="http://www.w3.org/1999/xlink">
    <!-- Generator: Sketch 46.1 (44463) - http://www.bohemiancoding.com/sketch -->
    <title>camel</title>
    <desc>Created with Sketch.</desc>
    <defs></defs>
    <g id="Page-1" stroke="none" stroke-width="1" fill="none" fill-rule="evenodd">
        <g id="camel" transform="translate(71.000000, 62.500000) scale(1, -1) translate(-71.000000, -62.500000) " fill-rule="nonzero" fill="#000000">
            <path d="M141.210929,116.027522 C142.852579,118.906002 141.849928,122.570291 138.971448,124.21194 C138.065909,124.728386 137.041438,124.99999 135.998979,124.99999 L6,124.99999 C2.68629142,124.99999 0,122.313699 0,118.99999 C0,117.94254 0.27946784,116.903872 0.810095785,115.989194 L66.3637081,2.99019392 C68.0265249,0.123888958 71.6981036,-0.851730896 74.5644086,0.811085961 C75.4810793,1.34287008 76.240548,2.10795626 76.7655627,3.02852094 L141.210929,116.027522 Z M73.5608098,2.54105405 C71.6499398,1.43250946 69.2022207,2.0829227 68.0936761,3.99379267 L2.54006404,116.992792 C2.18631196,117.602578 2,118.295024 2,118.99999 C2,121.209129 3.79086091,122.99999 6,122.99999 L135.998979,122.99999 C136.693952,122.99999 137.376932,122.818921 137.980625,122.474624 C139.899612,121.380191 140.568045,118.937332 139.473613,117.018345 L75.0282459,4.01934404 C74.6782361,3.40563424 74.1719236,2.89557679 73.5608098,2.54105405 Z" id="Rectangle"></path>
            <path d="M73.8962774,13.8177441 L130.786973,113.577477 C131.230194,114.35468 130.959448,115.34403 130.182245,115.787251 C129.937759,115.926676 129.661168,116 129.379721,116 L14.62,116 L14.62,116 C13.7252987,116 13,115.274701 13,114.38 C13,114.094506 13.0754473,113.814081 13.2187006,113.567129 L71.0877266,13.807396 C71.5366631,13.0334797 72.5279811,12.7700315 73.3018974,13.218968 C73.5494324,13.3625591 73.7545142,13.5691577 73.8962774,13.8177441 L73.8962774,13.8177441 Z M73.7839394,32.8248769 C73.6408067,32.5709136 73.4317967,32.3602789 73.1789492,32.2151842 C72.4029393,31.7698765 71.4128657,32.0379635 70.9675579,32.8139735 L70.9675579,32.8139735 L29.2149097,105.573699 C29.0740946,105.819089 29,106.097078 29,106.38 C29,107.274701 29.7252987,108 30.62,108 L113.379713,108 C113.658384,108 113.932342,107.928114 114.175111,107.791291 C114.954546,107.352005 115.230291,106.364037 114.791005,105.584602 L73.7839394,32.8248769 Z" id="Combined-Shape"></path>
            <path d="M56.7142861,78.6063245 L56.7142861,88.4754109 C56.7142861,88.8384698 56.4104229,89.1333433 56.0357144,89.1333433 L56.0357144,89.1333433 C55.6610095,89.1333433 55.3571427,89.4282666 55.3571427,89.7913255 L55.3571427,99.6604119 C55.3571427,100.387176 55.9647358,100.976327 56.7142861,100.976327 L60.1071438,100.976327 L57.111793,98.9460312 C56.8573306,98.6993501 56.714283,98.3645401 56.714283,98.0155559 L56.714283,93.7734358 C56.714283,93.4655817 56.8255696,93.1675749 57.0288666,92.931139 L60.7857103,89.1333433 L60.7857103,93.73897 L61.9402316,99.8958532 C62.0583043,100.521558 62.6196172,100.976327 63.2755248,100.976327 L66.8928535,100.976327 L63.3307603,98.4105939 C63.0088468,98.1609287 62.8214252,97.7828997 62.8214252,97.383137 L62.8214252,93.4099789 L64.7526397,89.4877485 C64.8218552,89.2525062 64.8571401,89.0093065 64.8571401,88.7648136 L64.8571401,86.9542436 C64.8571401,86.0635555 65.7305971,85.416664 66.6169473,85.6510111 L71.1506191,86.8499014 C71.8130409,87.0249654 72.2271049,87.6623577 72.1042834,88.3172564 L70.9642833,94.3969025 L71.5078194,99.6669768 C71.5851753,100.410352 72.229548,100.976327 72.9999977,100.976327 L74.357141,100.976327 L72.536398,98.6243013 C72.3949816,98.3502664 72.3214266,98.048082 72.3214266,97.7416204 L72.3214266,96.699691 C72.3214266,96.3913395 72.3770699,96.0855742 72.485643,95.7958234 L75.0357147,88.804402 L75.0506411,99.6840853 C75.0517265,100.41085 75.6582337,101 76.4077839,101 L79.1220699,101 L77.0863555,99.355144 C76.6458256,98.7857382 76.4077839,98.0930914 76.4077839,97.3812969 L76.4077839,95.0248453 C76.4077839,94.6970975 76.4580003,94.3708418 76.5578843,94.0574175 L78.7928276,88.6433132 C79.3944492,86.7476978 81.8595637,86.073005 83.8234851,85.5179724 C86.0272142,84.8950527 87.2499996,83.0091355 87.2499996,81.2380543 L87.2499996,75.3166124 C87.2499996,73.8630835 88.4651858,72.6848328 89.9642856,72.6848328 L90.6428572,72.6848328 C91.3924074,72.6848328 92,72.0957324 92,71.3689679 L92,71.1317362 C92,70.50444 91.5433229,69.9644271 90.908993,69.8413849 L86.8341711,69.0512095 C85.8391139,68.8582411 84.8162351,69.2193107 84.182314,69.9878519 L83.3921839,70.9456312 C82.8147197,71.6455393 82.4999981,72.5152395 82.4999981,73.4115973 L82.4999981,77.948392 C82.4999981,78.6751565 81.8924055,79.2642569 81.1428553,79.2642569 L80.4642837,79.2642569 L77.6165953,75.9510207 C77.2569503,75.5327568 76.812081,75.1909343 76.3096664,74.9473864 L73.7997664,73.7305918 C73.2700734,73.4739639 72.7865235,73.1358217 72.3677093,72.7297427 L70.5295948,70.9474714 C69.938966,70.3748329 69.1379801,70.053103 68.3026589,70.053103 L67.2462586,70.053103 C66.5815301,70.053103 65.9398729,70.2898373 65.4430227,70.717849 L54.91105,79.7949696 C54.33155,80.2943497 54,81.0101726 54,81.7619534 L54,85.1856988" id="Shape" transform="translate(73.000000, 85.000000) scale(-1, 1) translate(-73.000000, -85.000000) "></path>
        </g>
    </g>
</svg>