<svg xmlns="http://www.w3.org/2000/svg" width="71" height="63" viewBox="0 0 71 63">
  <title>
    camel
  </title>
  <g id="Page-1" fill="none" fill-rule="evenodd">
    <g id="camel" fill="#000" fill-rule="nonzero">
      <path id="Rectangle" d="M70.6054645,58.013761 C71.4262895,59.453001 70.924964,61.2851455 69.485724,62.10597 C69.0329545,62.364193 68.520719,62.499995 67.9994895,62.499995 L3,62.499995 C1.34314571,62.499995 0,61.1568495 0,59.499995 C0,58.97127 0.13973392,58.451936 0.405047893,57.994597 L33.181854,1.49509696 C34.0132624,0.061944479 35.8490518,-0.425865448 37.2822043,0.405542981 C37.7405397,0.67143504 38.120274,1.05397813 38.3827814,1.51426047 L70.6054645,58.013761 Z M36.7804049,1.27052703 C35.8249699,0.71625473 34.6011103,1.04146135 34.046838,1.99689634 L1.27003202,58.496396 C1.09315598,58.801289 1,59.147512 1,59.499995 C1,60.6045645 1.89543046,61.499995 3,61.499995 L67.9994895,61.499995 C68.346976,61.499995 68.688466,61.4094605 68.9903125,61.237312 C69.949806,60.6900955 70.2840225,59.468666 69.7368065,58.5091725 L37.5141229,2.00967202 C37.3391181,1.70281712 37.0859618,1.4477884 36.7804049,1.27052703 Z"/>
      <path id="Combined-Shape" d="M36.9481387,6.90887205 L65.3934865,56.7887385 C65.615097,57.17734 65.479724,57.672015 65.0911225,57.8936255 C64.9688795,57.963338 64.830584,58 64.6898605,58 L7.31,58 L7.31,58 C6.86264935,58 6.5,57.6373505 6.5,57.19 C6.5,57.047253 6.53772365,56.9070405 6.6093503,56.7835645 L35.5438633,6.903698 C35.7683315,6.51673985 36.2639906,6.38501575 36.6509487,6.609484 C36.7747162,6.68127955 36.8772571,6.78457885 36.9481387,6.90887205 L36.9481387,6.90887205 Z M36.8919697,16.4124384 C36.8204033,16.2854568 36.7158984,16.1801394 36.5894746,16.1075921 C36.2014696,15.8849382 35.7064328,16.0189817 35.483779,16.4069868 L35.483779,16.4069868 L14.6074548,52.7868495 C14.5370473,52.9095445 14.5,53.048539 14.5,53.19 C14.5,53.6373505 14.8626493,54 15.31,54 L56.6898565,54 C56.829192,54 56.966171,53.964057 57.0875555,53.8956455 C57.477273,53.6760025 57.6151455,53.1820185 57.3955025,52.792301 L36.8919697,16.4124384 Z"/>
      <path id="Shape" d="M28.3571431,39.3031623 L28.3571431,44.2377055 C28.3571431,44.4192349 28.2052115,44.5666717 28.0178572,44.5666717 L28.0178572,44.5666717 C27.8305047,44.5666717 27.6785713,44.7141333 27.6785713,44.8956628 L27.6785713,49.830206 C27.6785713,50.193588 27.9823679,50.4881635 28.3571431,50.4881635 L30.0535719,50.4881635 L28.5558965,49.4730156 C28.4286653,49.3496751 28.3571415,49.1822701 28.3571415,49.007778 L28.3571415,46.8867179 C28.3571415,46.7327909 28.4127848,46.5837875 28.5144333,46.4655695 L30.3928551,44.5666717 L30.3928551,46.869485 L30.9701158,49.9479266 C31.0291522,50.260779 31.3098086,50.4881635 31.6377624,50.4881635 L33.4464268,50.4881635 L31.6653802,49.205297 C31.5044234,49.0804644 31.4107126,48.8914499 31.4107126,48.6915685 L31.4107126,46.7049895 L32.3763199,44.7438743 C32.4109276,44.6262531 32.42857,44.5046533 32.42857,44.3824068 L32.42857,43.4771218 C32.42857,43.0317778 32.8652985,42.708332 33.3084737,42.8255056 L35.5753096,43.4249507 C35.9065205,43.5124827 36.1135525,43.8311789 36.0521417,44.1586282 L35.4821417,47.1984513 L35.7539097,49.8334884 C35.7925877,50.205176 36.114774,50.4881635 36.4999988,50.4881635 L37.1785705,50.4881635 L36.268199,49.3121507 C36.1974908,49.1751332 36.1607133,49.024041 36.1607133,48.8708102 L36.1607133,48.3498455 C36.1607133,48.1956698 36.1885349,48.0427871 36.2428215,47.8979117 L37.5178573,44.402201 L37.5253206,49.8420427 C37.5258633,50.205425 37.8291168,50.5 38.2038919,50.5 L39.5610349,50.5 L38.5431777,49.677572 C38.3229128,49.3928691 38.2038919,49.0465457 38.2038919,48.6906485 L38.2038919,47.5124227 C38.2038919,47.3485488 38.2290001,47.1854209 38.2789421,47.0287088 L39.3964138,44.3216566 C39.6972246,43.3738489 40.9297818,43.0365025 41.9117425,42.7589862 C43.0136071,42.4475264 43.6249998,41.5045678 43.6249998,40.6190272 L43.6249998,37.6583062 C43.6249998,36.9315418 44.2325929,36.3424164 44.9821428,36.3424164 L45.3214286,36.3424164 C45.6962037,36.3424164 46,36.0478662 46,35.684484 L46,35.5658681 C46,35.25222 45.7716615,34.9822136 45.4544965,34.9206925 L43.4170856,34.5256047 C42.919557,34.4291206 42.4081176,34.6096553 42.091157,34.993926 L41.696092,35.4728156 C41.4073598,35.8227697 41.249999,36.2576198 41.249999,36.7057987 L41.249999,38.974196 C41.249999,39.3375783 40.9462027,39.6321285 40.5714276,39.6321285 L40.2321418,39.6321285 L38.8082977,37.9755104 C38.6284751,37.7663784 38.4060405,37.5954672 38.1548332,37.4736932 L36.8998832,36.8652959 C36.6350367,36.736982 36.3932618,36.5679109 36.1838547,36.3648714 L35.2647974,35.4737357 C34.969483,35.1874165 34.56899,35.0265515 34.1513294,35.0265515 L33.6231293,35.0265515 C33.290765,35.0265515 32.9699364,35.1449187 32.7215114,35.3589245 L27.455525,39.8974848 C27.165775,40.1471749 27,40.5050863 27,40.8809767 L27,42.5928494" transform="matrix(-1 0 0 1 73 0)"/>
    </g>
  </g>
</svg>
