<svg xmlns="http://www.w3.org/2000/svg" width="842" height="602" viewBox="0 0 842 602">
  <title>
    frame3-text
  </title>
  <g id="Frame" fill="none" fill-rule="evenodd">
    <g id="frame3-text">
      <g id="Group" fill="#FFF" transform="translate(104 32)">
        <path id="Combined-Shape" d="M703.2869,325.274789 L703.2869,327.188744 L697.508426,327.188744 L697.508426,334.463675 L703.2869,334.463675 L703.2869,336.377629 L689.30242,336.377629 L689.30242,334.463675 L695.842473,334.463675 L695.842473,327.188744 L689.30242,327.188744 L689.30242,325.274789 L703.2869,325.274789 Z M695.033296,347.0102 L701.2116,344.886759 L695.033296,342.630006 L695.033296,347.0102 Z M703.2869,343.896454 L703.2869,346.03894 L689.30242,351.114252 L689.30242,349.038421 L693.4911,347.619619 L693.4911,342.087243 L689.30242,340.57322 L689.30242,338.630699 L703.2869,343.896454 Z M693.814771,354.595681 C693.021457,354.640118 692.377295,354.827385 691.882266,355.157488 C690.955675,355.785954 690.492386,356.893687 690.492386,358.480722 C690.492386,359.191714 690.593929,359.839214 690.797017,360.423243 C691.190501,361.553212 691.894954,362.118187 692.910397,362.118187 C693.671979,362.118187 694.214598,361.880136 694.53827,361.404025 C694.855596,360.921567 695.131666,360.16615 695.366487,359.137751 L695.794875,357.242841 C696.074121,356.004954 696.381923,355.128924 696.718288,354.614725 C697.302168,353.725985 698.174801,353.281622 699.336213,353.281622 C700.592824,353.281622 701.624117,353.716463 702.430125,354.586158 C703.236133,355.455853 703.63913,356.687374 703.63913,358.280757 C703.63913,359.747177 703.285317,360.99298 702.577681,362.018205 C701.870044,363.043429 700.738794,363.556034 699.183898,363.556034 L699.183898,361.77539 C699.932787,361.680168 700.507138,361.47703 700.906968,361.165971 C701.636818,360.588291 702.001737,359.607518 702.001737,358.223624 C702.001737,357.106351 701.76692,356.303324 701.297277,355.814517 C700.827635,355.32571 700.281843,355.081311 699.659884,355.081311 C698.97446,355.081311 698.473093,355.366973 698.155767,355.938305 C697.952679,356.312845 697.698822,357.160309 697.394189,358.480722 L696.946762,360.442287 C696.73098,361.38816 696.435871,362.118185 696.061427,362.632384 C695.407736,363.521124 694.458946,363.965487 693.215028,363.965487 C691.666478,363.965487 690.559028,363.402098 689.892643,362.275303 C689.226259,361.148508 688.893072,359.839224 688.893072,358.347412 C688.893072,356.608022 689.337321,355.246366 690.225834,354.262405 C691.108,353.278443 692.3043,352.795992 693.814771,352.815036 L693.814771,354.595681 Z M693.814771,368.122989 C693.021457,368.167426 692.377295,368.354693 691.882266,368.684796 C690.955675,369.313262 690.492386,370.420996 690.492386,372.00803 C690.492386,372.719022 690.593929,373.366522 690.797017,373.950551 C691.190501,375.08052 691.894954,375.645496 692.910397,375.645496 C693.671979,375.645496 694.214598,375.407444 694.53827,374.931334 C694.855596,374.448875 695.131666,373.693458 695.366487,372.66506 L695.794875,370.77015 C696.074121,369.532263 696.381923,368.656233 696.718288,368.142033 C697.302168,367.253294 698.174801,366.808931 699.336213,366.808931 C700.592824,366.808931 701.624117,367.243772 702.430125,368.113467 C703.236133,368.983162 703.63913,370.214682 703.63913,371.808065 C703.63913,373.274485 703.285317,374.520289 702.577681,375.545513 C701.870044,376.570738 700.738794,377.083342 699.183898,377.083342 L699.183898,375.302698 C699.932787,375.207476 700.507138,375.004339 700.906968,374.69328 C701.636818,374.115599 702.001737,373.134826 702.001737,371.750932 C702.001737,370.63366 701.76692,369.830632 701.297277,369.341826 C700.827635,368.853019 700.281843,368.608619 699.659884,368.608619 C698.97446,368.608619 698.473093,368.894281 698.155767,369.465614 C697.952679,369.840154 697.698822,370.687618 697.394189,372.00803 L696.946762,373.969596 C696.73098,374.915468 696.435871,375.645493 696.061427,376.159693 C695.407736,377.048432 694.458946,377.492795 693.215028,377.492795 C691.666478,377.492795 690.559028,376.929406 689.892643,375.802612 C689.226259,374.675817 688.893072,373.366533 688.893072,371.87472 C688.893072,370.13533 689.337321,368.773675 690.225834,367.789713 C691.108,366.805752 692.3043,366.3233 693.814771,366.342345 L693.814771,368.122989 Z M695.033296,387.592126 L701.2116,385.468684 L695.033296,383.211932 L695.033296,387.592126 Z M703.2869,384.478379 L703.2869,386.620865 L689.30242,391.696177 L689.30242,389.620346 L693.4911,388.201544 L693.4911,382.669169 L689.30242,381.155145 L689.30242,379.212624 L703.2869,384.478379 Z M703.2869,393.939725 L703.2869,396.177433 L691.958424,403.242876 L703.2869,403.242876 L703.2869,405.042564 L689.30242,405.042564 L689.30242,402.919122 L700.621377,395.748935 L689.30242,395.748935 L689.30242,393.939725 L703.2869,393.939725 Z M703.2869,414.528795 L703.2869,416.442749 L697.508426,416.442749 L697.508426,423.71768 L703.2869,423.71768 L703.2869,425.631634 L689.30242,425.631634 L689.30242,423.71768 L695.842473,423.71768 L695.842473,416.442749 L689.30242,416.442749 L689.30242,414.528795 L703.2869,414.528795 Z M695.033296,436.264206 L701.2116,434.140764 L695.033296,431.884012 L695.033296,436.264206 Z M703.2869,433.150459 L703.2869,435.292945 L689.30242,440.368257 L689.30242,438.292426 L693.4911,436.873624 L693.4911,431.341248 L689.30242,429.827225 L689.30242,427.884704 L703.2869,433.150459 Z M693.472061,449.477283 C692.291609,449.477283 691.374551,449.302711 690.72086,448.953564 C689.527714,448.306054 688.931151,447.074533 688.931151,445.258965 C688.931151,444.211523 689.215153,443.316448 689.783166,442.573716 C690.35118,441.830984 691.361847,441.459623 692.8152,441.459623 L693.814771,441.459623 L693.814771,443.240267 L692.8152,443.240267 C692.053618,443.240267 691.480853,443.410078 691.096889,443.749703 C690.712925,444.089328 690.520945,444.617803 690.520945,445.335143 C690.520945,446.344497 690.866825,447.004693 691.558596,447.315752 C691.983812,447.506196 692.786635,447.601417 693.967087,447.601417 L703.2869,447.601417 L703.2869,449.477283 L693.472061,449.477283 Z M693.472061,459.748012 C692.291609,459.748012 691.374551,459.573441 690.72086,459.224293 C689.527714,458.576783 688.931151,457.345263 688.931151,455.529695 C688.931151,454.482252 689.215153,453.587178 689.783166,452.844446 C690.35118,452.101713 691.361847,451.730353 692.8152,451.730353 L693.814771,451.730353 L693.814771,453.510997 L692.8152,453.510997 C692.053618,453.510997 691.480853,453.680807 691.096889,454.020432 C690.712925,454.360058 690.520945,454.888532 690.520945,455.605872 C690.520945,456.615226 690.866825,457.275423 691.558596,457.586482 C691.983812,457.776926 692.786635,457.872146 693.967087,457.872146 L703.2869,457.872146 L703.2869,459.748012 L693.472061,459.748012 Z M695.033296,470.332973 L701.2116,468.209531 L695.033296,465.952779 L695.033296,470.332973 Z M703.2869,467.219226 L703.2869,469.361712 L689.30242,474.437024 L689.30242,472.361193 L693.4911,470.942391 L693.4911,465.410016 L689.30242,463.895992 L689.30242,461.953471 L703.2869,467.219226 Z M693.472061,483.54605 C692.291609,483.54605 691.374551,483.371479 690.72086,483.022331 C689.527714,482.374821 688.931151,481.1433 688.931151,479.327733 C688.931151,478.28029 689.215153,477.385216 689.783166,476.642483 C690.35118,475.899751 691.361847,475.528391 692.8152,475.528391 L693.814771,475.528391 L693.814771,477.309035 L692.8152,477.309035 C692.053618,477.309035 691.480853,477.478845 691.096889,477.81847 C690.712925,478.158096 690.520945,478.68657 690.520945,479.40391 C690.520945,480.413264 690.866825,481.073461 691.558596,481.384519 C691.983812,481.574964 692.786635,481.670184 693.967087,481.670184 L703.2869,481.670184 L703.2869,483.54605 L693.472061,483.54605 Z M489.958841,0.962761822 L492.196549,0.962761822 L499.261992,12.2912381 L499.261992,0.962761822 L501.06168,0.962761822 L501.06168,14.9472422 L498.938239,14.9472422 L491.768052,3.62828565 L491.768052,14.9472422 L489.958841,14.9472422 L489.958841,0.962761822 Z M514.017659,1.3625904 C515.407902,2.09243986 516.258539,3.37124386 516.569598,5.19904077 L514.693733,5.19904077 C514.4652,4.17725152 513.99227,3.43313356 513.274931,2.96666456 C512.557591,2.50019556 511.652995,2.26696455 510.561115,2.26696455 C509.266095,2.26696455 508.175818,2.75246582 507.290253,3.72348293 C506.404687,4.69450004 505.961911,6.14148422 505.961911,8.06447889 C505.961911,9.72726635 506.326924,11.0806408 507.05696,12.1246429 C507.786996,13.1686449 508.977254,13.6906381 510.62777,13.6906381 C511.89105,13.6906381 512.93689,13.3241323 513.765322,12.5911095 C514.593754,11.8580868 515.017486,10.6728925 515.03653,9.03549114 L510.656337,9.03549114 L510.656337,7.46473602 L516.79813,7.46473602 L516.79813,14.9472422 L515.579294,14.9472422 L515.12223,13.1480136 C514.481068,13.852477 513.912918,14.3411515 513.417763,14.6140517 C512.586157,15.083694 511.529208,15.3185116 510.246884,15.3185116 C508.590019,15.3185116 507.164884,14.782239 505.971433,13.7096776 C504.670065,12.364216 504.019391,10.5174072 504.019391,8.16919589 C504.019391,5.8273311 504.654195,3.96465629 505.923823,2.58111558 C507.129969,1.26104003 508.691588,0.601012159 510.608726,0.601012159 C511.92279,0.601012159 513.05909,0.854869033 514.017659,1.3625904 Z M521.355563,0.962761822 L525.373915,12.8719415 L529.344656,0.962761822 L531.468098,0.962761822 L526.36422,14.9472422 L524.355044,14.9472422 L519.260688,0.962761822 L521.355563,0.962761822 Z M549.552839,0.962761822 L549.552839,2.62871422 L544.83937,2.62871422 L544.83937,14.9472422 L542.915893,14.9472422 L542.915893,2.62871422 L538.202424,2.62871422 L538.202424,0.962761822 L549.552839,0.962761822 Z M552.034441,0.962761822 L558.509511,0.962761822 C559.575998,0.962761822 560.455202,1.11824916 561.147149,1.42922849 C562.461214,2.02580109 563.118236,3.12690528 563.118236,4.7325741 C563.118236,5.57031435 562.945252,6.25572791 562.599279,6.78883534 C562.253305,7.32194277 561.769267,7.75032624 561.147149,8.07399861 C561.693089,8.29612671 562.104125,8.58806212 562.380269,8.94981359 C562.656413,9.31156506 562.810353,9.89860908 562.842094,10.7109633 L562.908749,12.5863497 C562.927793,13.1194571 562.97223,13.5161085 563.042059,13.7763157 C563.156326,14.2205719 563.359463,14.5061608 563.651477,14.6330912 L563.651477,14.9472422 L561.32807,14.9472422 C561.264589,14.8266584 561.213804,14.671171 561.175716,14.4807755 C561.137627,14.29038 561.105887,13.9222876 561.080494,13.3764871 L560.966228,11.0441537 C560.921791,10.1302553 560.582171,9.51782558 559.947357,9.20684624 C559.585513,9.03549028 559.017363,8.94981359 558.24289,8.94981359 L553.929351,8.94981359 L553.929351,14.9472422 L552.034441,14.9472422 L552.034441,0.962761822 Z M558.309545,7.36953874 C559.198285,7.36953874 559.901331,7.19183893 560.418704,6.83643398 C560.936077,6.48102902 561.19476,5.84004042 561.19476,4.91344893 C561.19476,3.91704575 560.832921,3.23797861 560.109234,2.87622714 C559.721997,2.68583163 559.204632,2.5906353 558.557121,2.5906353 L553.929351,2.5906353 L553.929351,7.36953874 L558.309545,7.36953874 Z M566.837719,0.962761822 L568.751674,0.962761822 L568.751674,14.9472422 L566.837719,14.9472422 L566.837719,0.962761822 Z M572.528289,0.962761822 L582.726524,0.962761822 L582.726524,2.67631286 L574.375589,2.67631286 L574.375589,6.92211153 L582.098061,6.92211153 L582.098061,8.54046528 L574.375589,8.54046528 L574.375589,13.2812898 L582.869356,13.2812898 L582.869356,14.9472422 L572.528289,14.9472422 L572.528289,0.962761822 Z M585.874677,0.962761822 L588.112385,0.962761822 L595.177828,12.2912381 L595.177828,0.962761822 L596.977516,0.962761822 L596.977516,14.9472422 L594.854074,14.9472422 L587.683887,3.62828565 L587.683887,14.9472422 L585.874677,14.9472422 L585.874677,0.962761822 Z M600.477989,0.962761822 L602.715697,0.962761822 L609.78114,12.2912381 L609.78114,0.962761822 L611.580829,0.962761822 L611.580829,14.9472422 L609.457387,14.9472422 L602.2872,3.62828565 L602.2872,14.9472422 L600.477989,14.9472422 L600.477989,0.962761822 Z M615.509799,0.962761822 L617.423753,0.962761822 L617.423753,14.9472422 L615.509799,14.9472422 L615.509799,0.962761822 Z M625.085411,0.962761822 L627.227897,0.962761822 L632.303209,14.9472422 L630.227378,14.9472422 L628.808576,10.7585619 L623.2762,10.7585619 L621.762177,14.9472422 L619.819656,14.9472422 L625.085411,0.962761822 Z M628.199157,9.21636597 L626.075716,3.03806252 L623.818964,9.21636597 L628.199157,9.21636597 Z M634.546757,0.962761822 L636.441667,0.962761822 L636.441667,13.2812898 L643.526154,13.2812898 L643.526154,14.9472422 L634.546757,14.9472422 L634.546757,0.962761822 Z M0.139848676,522.816479 L2.37755643,522.816479 L9.44299965,534.144955 L9.44299965,522.816479 L11.242688,522.816479 L11.242688,536.800959 L9.11924618,536.800959 L1.9490592,525.482003 L1.9490592,536.800959 L0.139848676,536.800959 L0.139848676,522.816479 Z M24.1986668,523.216307 C25.5889092,523.946157 26.439547,525.224961 26.7506058,527.052758 L24.8747402,527.052758 C24.6462072,526.030969 24.1732779,525.286851 23.4559382,524.820382 C22.7385986,524.353913 21.8340023,524.120682 20.7421225,524.120682 C19.4471021,524.120682 18.3568256,524.606183 17.4712603,525.5772 C16.5856949,526.548217 16.1429189,527.995201 16.1429189,529.918196 C16.1429189,531.580983 16.5079314,532.934358 17.2379673,533.97836 C17.9680033,535.022362 19.1582615,535.544355 20.8087776,535.544355 C22.0720572,535.544355 23.1178974,535.177849 23.9463295,534.444827 C24.7747616,533.711804 25.1984936,532.52661 25.217538,530.889208 L20.8373441,530.889208 L20.8373441,529.318453 L26.9791377,529.318453 L26.9791377,536.800959 L25.7603011,536.800959 L25.3032374,535.001731 C24.6620754,535.706194 24.0939255,536.194869 23.5987707,536.467769 C22.7671645,536.937411 21.7102152,537.172229 20.4278912,537.172229 C18.7710269,537.172229 17.3458911,536.635956 16.152441,535.563395 C14.8510726,534.217933 14.2003981,532.371124 14.2003981,530.022913 C14.2003981,527.681048 14.8352024,525.818373 16.1048302,524.434833 C17.3109766,523.114757 18.8725953,522.454729 20.7897333,522.454729 C22.103798,522.454729 23.2400978,522.708586 24.1986668,523.216307 Z M31.5365708,522.816479 L35.5549226,534.725659 L39.5256636,522.816479 L41.6491054,522.816479 L36.5452273,536.800959 L34.5360514,536.800959 L29.4416954,522.816479 L31.5365708,522.816479 Z M59.7338469,522.816479 L59.7338469,524.482431 L55.0203773,524.482431 L55.0203773,536.800959 L53.0969009,536.800959 L53.0969009,524.482431 L48.3834313,524.482431 L48.3834313,522.816479 L59.7338469,522.816479 Z M62.2154489,522.816479 L68.6905182,522.816479 C69.7570055,522.816479 70.6362095,522.971966 71.3281567,523.282946 C72.6422214,523.879518 73.2992439,524.980622 73.2992439,526.586291 C73.2992439,527.424031 73.1262597,528.109445 72.7802862,528.642552 C72.4343126,529.17566 71.9502743,529.604043 71.3281567,529.927716 C71.8740966,530.149844 72.2851324,530.441779 72.5612765,530.803531 C72.8374205,531.165282 72.9913606,531.752326 73.0231013,532.56468 L73.0897564,534.440067 C73.1088008,534.973174 73.1532371,535.369825 73.2230666,535.630033 C73.3373331,536.074289 73.5404705,536.359878 73.8324849,536.486808 L73.8324849,536.800959 L71.5090777,536.800959 C71.4455963,536.680375 71.394812,536.524888 71.3567231,536.334493 C71.3186343,536.144097 71.2868941,535.776005 71.2615015,535.230204 L71.1472356,532.897871 C71.1027986,531.983972 70.7631783,531.371543 70.1283644,531.060563 C69.7665205,530.889207 69.1983706,530.803531 68.4238977,530.803531 L64.1103589,530.803531 L64.1103589,536.800959 L62.2154489,536.800959 L62.2154489,522.816479 Z M68.4905528,529.223256 C69.3792922,529.223256 70.082338,529.045556 70.5997114,528.690151 C71.1170847,528.334746 71.3757675,527.693757 71.3757675,526.767166 C71.3757675,525.770763 71.013929,525.091696 70.2902411,524.729944 C69.9030047,524.539549 69.3856391,524.444352 68.738129,524.444352 L64.1103589,524.444352 L64.1103589,529.223256 L68.4905528,529.223256 Z M77.0187268,522.816479 L78.9326811,522.816479 L78.9326811,536.800959 L77.0187268,536.800959 L77.0187268,522.816479 Z M82.709297,522.816479 L92.9075311,522.816479 L92.9075311,524.53003 L84.5565962,524.53003 L84.5565962,528.775829 L92.2790685,528.775829 L92.2790685,530.394182 L84.5565962,530.394182 L84.5565962,535.135007 L93.0503635,535.135007 L93.0503635,536.800959 L82.709297,536.800959 L82.709297,522.816479 Z M96.0556844,522.816479 L98.2933921,522.816479 L105.358835,534.144955 L105.358835,522.816479 L107.158524,522.816479 L107.158524,536.800959 L105.035082,536.800959 L97.8648949,525.482003 L97.8648949,536.800959 L96.0556844,536.800959 L96.0556844,522.816479 Z M110.658997,522.816479 L112.896705,522.816479 L119.962148,534.144955 L119.962148,522.816479 L121.761836,522.816479 L121.761836,536.800959 L119.638394,536.800959 L112.468207,525.482003 L112.468207,536.800959 L110.658997,536.800959 L110.658997,522.816479 Z M125.690807,522.816479 L127.604761,522.816479 L127.604761,536.800959 L125.690807,536.800959 L125.690807,522.816479 Z M135.266418,522.816479 L137.408905,522.816479 L142.484216,536.800959 L140.408385,536.800959 L138.989583,532.612279 L133.457208,532.612279 L131.943184,536.800959 L130.000664,536.800959 L135.266418,522.816479 Z M138.380165,531.070083 L136.256723,524.89178 L133.999971,531.070083 L138.380165,531.070083 Z M144.727764,522.816479 L146.622674,522.816479 L146.622674,535.135007 L153.707162,535.135007 L153.707162,536.800959 L144.727764,536.800959 L144.727764,522.816479 Z M185.450998,527.147955 L185.450998,525.834233 C186.688885,525.713649 187.552219,525.51215 188.041026,525.22973 C188.529833,524.94731 188.894845,524.279349 189.136075,523.225827 L190.488221,523.225827 L190.488221,536.800959 L188.659967,536.800959 L188.659967,527.147955 L185.450998,527.147955 Z M197.359539,533.326259 C197.473806,534.303622 197.927691,534.979516 198.721208,535.353961 C199.127489,535.544356 199.597245,535.639552 200.130488,535.639552 C201.14619,535.639552 201.898434,535.315885 202.38724,534.66854 C202.876047,534.021195 203.120447,533.30405 203.120447,532.517082 C203.120447,531.565104 202.830024,530.828919 202.249169,530.308505 C201.668314,529.78809 200.971617,529.527887 200.159055,529.527887 C199.568678,529.527887 199.062421,529.642123 198.64027,529.870597 C198.218119,530.099072 197.857867,530.416393 197.559505,530.82257 L196.074048,530.736893 L197.111963,523.397182 L204.196451,523.397182 L204.196451,525.053615 L198.397455,525.053615 L197.816603,528.842467 C198.13401,528.601299 198.435542,528.420426 198.721208,528.299842 C199.22906,528.090407 199.816254,527.985691 200.482808,527.985691 C201.733392,527.985691 202.793515,528.388689 203.66321,529.194697 C204.532905,530.000704 204.967746,531.022478 204.967746,532.260049 C204.967746,533.548392 204.569406,534.684401 203.772715,535.668112 C202.976023,536.651822 201.704828,537.143669 199.959089,537.143669 C198.848165,537.143669 197.865805,536.831108 197.011981,536.205976 C196.158156,535.580844 195.680466,534.620948 195.578895,533.326259 L197.359539,533.326259 Z M213.825514,522.816479 L219.491199,522.816479 C221.414685,522.816479 222.906476,523.498719 223.966615,524.86322 C224.912487,526.094445 225.385417,527.67153 225.385417,529.594525 C225.385417,531.07961 225.106103,532.421878 224.547467,533.62137 C223.563505,535.741107 221.871751,536.800959 219.472155,536.800959 L213.825514,536.800959 L213.825514,522.816479 Z M219.110313,535.182605 C219.751475,535.182605 220.278362,535.115968 220.690991,534.982691 C221.427376,534.735177 222.03044,534.259195 222.500202,533.554732 C222.874742,532.989892 223.144534,532.2664 223.309586,531.384234 C223.404808,530.857473 223.452418,530.368799 223.452418,529.918196 C223.452418,528.185597 223.108037,526.840155 222.419264,525.881831 C221.730491,524.923507 220.62117,524.444352 219.091269,524.444352 L215.729946,524.444352 L215.729946,535.182605 L219.110313,535.182605 Z M228.524048,522.816479 L238.722282,522.816479 L238.722282,524.53003 L230.371347,524.53003 L230.371347,528.775829 L238.093819,528.775829 L238.093819,530.394182 L230.371347,530.394182 L230.371347,535.135007 L238.865114,535.135007 L238.865114,536.800959 L228.524048,536.800959 L228.524048,522.816479 Z M251.887748,523.83509 C252.865362,524.768028 253.408119,525.82788 253.516038,527.014679 L251.668739,527.014679 C251.45925,526.113473 251.041866,525.399501 250.416574,524.87274 C249.791283,524.345979 248.913666,524.082603 247.783697,524.082603 C246.406151,524.082603 245.293656,524.566517 244.44618,525.534361 C243.598703,526.502205 243.174971,527.985681 243.174971,529.984834 C243.174971,531.622235 243.557441,532.950224 244.322392,533.96884 C245.087342,534.987456 246.228403,535.496757 247.745608,535.496757 C249.142199,535.496757 250.205496,534.960484 250.935532,533.887922 C251.322769,533.323082 251.611605,532.580551 251.802049,531.660306 L253.649348,531.660306 C253.484296,533.132698 252.938365,534.367077 252.011536,535.36348 C250.900612,536.562972 249.402474,537.162709 247.517076,537.162709 C245.891953,537.162709 244.527124,536.670861 243.422547,535.687151 C241.968824,534.386115 241.241973,532.377473 241.241973,529.661163 C241.241973,527.598545 241.787904,525.907224 242.879784,524.587148 C244.060538,523.152835 245.688811,522.43569 247.764653,522.43569 C249.535783,522.43569 250.910135,522.902152 251.887748,523.83509 Z M261.735821,530.48938 L266.515945,530.48938 L266.515945,532.250529 L261.735821,532.250529 L261.735821,530.48938 Z M275.745077,527.147955 L275.745077,525.834233 C276.982964,525.713649 277.846298,525.51215 278.335105,525.22973 C278.823912,524.94731 279.188924,524.279349 279.430154,523.225827 L280.7823,523.225827 L280.7823,536.800959 L278.954046,536.800959 L278.954046,527.147955 L275.745077,527.147955 Z M287.653619,533.326259 C287.767885,534.303622 288.22177,534.979516 289.015287,535.353961 C289.421568,535.544356 289.891324,535.639552 290.424567,535.639552 C291.440269,535.639552 292.192513,535.315885 292.681319,534.66854 C293.170126,534.021195 293.414526,533.30405 293.414526,532.517082 C293.414526,531.565104 293.124103,530.828919 292.543248,530.308505 C291.962393,529.78809 291.265696,529.527887 290.453134,529.527887 C289.862757,529.527887 289.3565,529.642123 288.934349,529.870597 C288.512198,530.099072 288.151946,530.416393 287.853584,530.82257 L286.368127,530.736893 L287.406042,523.397182 L294.49053,523.397182 L294.49053,525.053615 L288.691534,525.053615 L288.110682,528.842467 C288.428089,528.601299 288.729621,528.420426 289.015287,528.299842 C289.523139,528.090407 290.110333,527.985691 290.776887,527.985691 C292.027471,527.985691 293.087594,528.388689 293.957289,529.194697 C294.826984,530.000704 295.261825,531.022478 295.261825,532.260049 C295.261825,533.548392 294.863485,534.684401 294.066794,535.668112 C293.270102,536.651822 291.998907,537.143669 290.253168,537.143669 C289.142244,537.143669 288.159884,536.831108 287.30606,536.205976 C286.452235,535.580844 285.974545,534.620948 285.872974,533.326259 L287.653619,533.326259 Z M307.033374,522.816479 L309.17586,522.816479 L314.251172,536.800959 L312.175341,536.800959 L310.756539,532.612279 L305.224163,532.612279 L303.71014,536.800959 L301.767619,536.800959 L307.033374,522.816479 Z M310.14712,531.070083 L308.023679,524.89178 L305.766926,531.070083 L310.14712,531.070083 Z M316.675641,522.816479 L322.969789,522.816479 C324.214024,522.816479 325.217015,523.167119 325.978792,523.868409 C326.740568,524.569699 327.121451,525.554981 327.121451,526.824284 C327.121451,527.915885 326.781831,528.866262 326.10258,529.675443 C325.423329,530.484624 324.379076,530.889208 322.969789,530.889208 L318.570551,530.889208 L318.570551,536.800959 L316.675641,536.800959 L316.675641,522.816479 Z M324.064837,524.739464 C323.64586,524.542722 323.071362,524.444352 322.341326,524.444352 L318.570551,524.444352 L318.570551,529.289894 L322.341326,529.289894 C323.191977,529.289894 323.882327,529.109021 324.412396,528.747269 C324.942466,528.385518 325.207497,527.747703 325.207497,526.833804 C325.207497,525.805668 324.826614,525.107562 324.064837,524.739464 Z M330.25056,522.816479 L336.725629,522.816479 C337.792116,522.816479 338.671321,522.971966 339.363268,523.282946 C340.677332,523.879518 341.334355,524.980622 341.334355,526.586291 C341.334355,527.424031 341.161371,528.109445 340.815397,528.642552 C340.469424,529.17566 339.985385,529.604043 339.363268,529.927716 C339.909208,530.149844 340.320243,530.441779 340.596387,530.803531 C340.872532,531.165282 341.026472,531.752326 341.058212,532.56468 L341.124867,534.440067 C341.143912,534.973174 341.188348,535.369825 341.258178,535.630033 C341.372444,536.074289 341.575582,536.359878 341.867596,536.486808 L341.867596,536.800959 L339.544189,536.800959 C339.480707,536.680375 339.429923,536.524888 339.391834,536.334493 C339.353745,536.144097 339.322005,535.776005 339.296613,535.230204 L339.182347,532.897871 C339.13791,531.983972 338.798289,531.371543 338.163475,531.060563 C337.801632,530.889207 337.233482,530.803531 336.459009,530.803531 L332.14547,530.803531 L332.14547,536.800959 L330.25056,536.800959 L330.25056,522.816479 Z M336.525664,529.223256 C337.414403,529.223256 338.117449,529.045556 338.634822,528.690151 C339.152196,528.334746 339.410878,527.693757 339.410878,526.767166 C339.410878,525.770763 339.04904,525.091696 338.325352,524.729944 C337.938116,524.539549 337.42075,524.444352 336.77324,524.444352 L332.14547,524.444352 L332.14547,529.223256 L336.525664,529.223256 Z M170.312096,518.604317 L170.312096,542 L170.312096,518.604317 Z"/>
      </g>
      <rect id="Rectangle" width="1.3" height="22.735" x="273" y="551" fill="#D8D8D8"/>
    </g>
  </g>
</svg>
