<svg xmlns="http://www.w3.org/2000/svg" width="842" height="602" viewBox="0 0 842 602">
  <title>
    frame1
  </title>
  <g id="Frame" fill="none" fill-rule="evenodd">
    <g id="frame1">
      <rect id="Rectangle-5" width="1254" height="892"/>
      <path id="Combined-Shape" fill="#FFF" d="M776.49787,18 L822,18 L822,63.516055 L776.49787,63.516055 L776.49787,18 Z M776.49787,539.483945 L822,539.483945 L822,585 L776.49787,585 L776.49787,539.483945 Z M21.1625076,539.483945 L66.6646379,539.483945 L66.6646379,585 L21.1625076,585 L21.1625076,539.483945 Z M21.1625076,18 L66.6646379,18 L66.6646379,63.516055 L21.1625076,63.516055 L21.1625076,18 Z M20.9930376,264.89481 L20.9930376,70.2106951 L66.5090926,70.2106951 L66.5090926,264.89481 L20.9930376,264.89481 Z M285.724893,18 L561.987827,18 L561.987827,63.516055 L285.724893,63.516055 L285.724893,18 Z M480.734023,539.483945 L769.997565,539.483945 L769.997565,585 L480.734023,585 L480.734023,539.483945 Z"/>
    </g>
  </g>
</svg>
