<svg xmlns="http://www.w3.org/2000/svg" width="842" height="602" viewBox="0 0 842 602">
  <title>
    frame1-text
  </title>
  <g id="Frame" fill="none" fill-rule="evenodd">
    <g id="frame1-text">
      <rect id="Rectangle-5" width="815" height="580" x="14" y="11"/>
      <path id="Combined-Shape" fill="#FFF" d="M29,550.680453 L30.3424986,550.680453 L34.5813667,557.472303 L34.5813667,550.680453 L35.6610784,550.680453 L35.6610784,559.064678 L34.3871329,559.064678 L30.0854244,552.278535 L30.0854244,559.064678 L29,559.064678 L29,550.680453 Z M44.3616122,551.879015 C44.9176569,552.620985 45.1956751,553.570313 45.1956751,554.727026 C45.1956751,555.978863 44.877668,557.019509 44.2416442,557.848994 C43.4951731,558.823068 42.4307061,559.310098 41.0482112,559.310098 C39.757121,559.310098 38.7421641,558.883947 38.0033101,558.031632 C37.3444351,557.209757 37.0150025,556.171014 37.0150025,554.915371 C37.0150025,553.781488 37.2968292,552.811233 37.8604911,552.004578 C38.584111,550.969624 39.6542907,550.452155 41.0710623,550.452155 C42.5525788,550.452155 43.6494178,550.92777 44.3616122,551.879015 Z M43.3590227,557.218322 C43.8065245,556.501084 44.0302721,555.676367 44.0302721,554.744148 C44.0302721,553.758659 43.7722483,552.965333 43.2561931,552.364147 C42.7401378,551.76296 42.034619,551.462372 41.1396154,551.462372 C40.2712715,551.462372 39.5628963,551.760107 39.0144686,552.355586 C38.4660409,552.951064 38.1918311,553.82905 38.1918311,554.989568 C38.1918311,555.917982 38.4270041,556.700844 38.897357,557.338178 C39.36771,557.975512 40.1303558,558.294174 41.1853175,558.294174 C42.1869598,558.294174 42.911521,557.93556 43.3590227,557.218322 Z M47.2922581,556.359353 C47.3189178,556.834975 47.4312676,557.221174 47.629311,557.517962 C48.006355,558.073489 48.6709328,558.351248 49.6230643,558.351248 C50.0496192,558.351248 50.438083,558.290369 50.7884674,558.16861 C51.466385,557.932702 51.8053387,557.510356 51.8053387,556.901559 C51.8053387,556.444962 51.6625211,556.119641 51.3768817,555.925587 C51.0874337,555.735339 50.6342259,555.569825 50.0172447,555.42904 L48.8804055,555.172206 C48.1377429,555.004787 47.6121742,554.820248 47.3036837,554.618584 C46.77049,554.268526 46.5038972,553.74535 46.5038972,553.049039 C46.5038972,552.295654 46.7647773,551.677354 47.2865454,551.194122 C47.8083134,550.71089 48.5471563,550.469278 49.5030963,550.469278 C50.3828658,550.469278 51.1302778,550.681402 51.7453547,551.105657 C52.3604316,551.529912 52.6679655,552.208139 52.6679655,553.140358 L51.5996793,553.140358 C51.5425514,552.691371 51.4206804,552.347026 51.2340627,552.107312 C50.8874868,551.66974 50.2990784,551.450957 49.4688198,551.450957 C48.7985192,551.450957 48.3167479,551.591739 48.0234914,551.873307 C47.7302349,552.154875 47.5836089,552.482099 47.5836089,552.854986 C47.5836089,553.265924 47.75499,553.566512 48.0977573,553.756761 C48.3224603,553.878521 48.8308909,554.030717 49.6230643,554.213356 L50.7998929,554.481606 C51.3673632,554.610975 51.8053371,554.787904 52.1138277,555.012398 C52.6470214,555.40431 52.9136142,555.973146 52.9136142,556.718921 C52.9136142,557.647336 52.5756126,558.311294 51.8995992,558.710817 C51.2235859,559.110339 50.4380892,559.310098 49.5430856,559.310098 C48.4995496,559.310098 47.682633,559.043753 47.0923115,558.511056 C46.50199,557.982165 46.2125464,557.264937 46.223972,556.359353 L47.2922581,556.359353 Z M55.0958886,556.359353 C55.1225482,556.834975 55.2348981,557.221174 55.4329414,557.517962 C55.8099855,558.073489 56.4745633,558.351248 57.4266947,558.351248 C57.8532496,558.351248 58.2417134,558.290369 58.5920978,558.16861 C59.2700154,557.932702 59.6089691,557.510356 59.6089691,556.901559 C59.6089691,556.444962 59.4661515,556.119641 59.1805121,555.925587 C58.8910641,555.735339 58.4378564,555.569825 57.8208752,555.42904 L56.6840359,555.172206 C55.9413733,555.004787 55.4158047,554.820248 55.1073141,554.618584 C54.5741205,554.268526 54.3075276,553.74535 54.3075276,553.049039 C54.3075276,552.295654 54.5684078,551.677354 55.0901758,551.194122 C55.6119438,550.71089 56.3507868,550.469278 57.3067267,550.469278 C58.1864962,550.469278 58.9339082,550.681402 59.5489851,551.105657 C60.164062,551.529912 60.4715959,552.208139 60.4715959,553.140358 L59.4033097,553.140358 C59.3461819,552.691371 59.2243109,552.347026 59.0376931,552.107312 C58.6911172,551.66974 58.1027088,551.450957 57.2724502,551.450957 C56.6021496,551.450957 56.1203783,551.591739 55.8271219,551.873307 C55.5338654,552.154875 55.3872393,552.482099 55.3872393,552.854986 C55.3872393,553.265924 55.5586204,553.566512 55.9013877,553.756761 C56.1260908,553.878521 56.6345213,554.030717 57.4266947,554.213356 L58.6035233,554.481606 C59.1709937,554.610975 59.6089676,554.787904 59.9174582,555.012398 C60.4506518,555.40431 60.7172446,555.973146 60.7172446,556.718921 C60.7172446,557.647336 60.379243,558.311294 59.7032296,558.710817 C59.0272163,559.110339 58.2417196,559.310098 57.3467161,559.310098 C56.30318,559.310098 55.4862635,559.043753 54.8959419,558.511056 C54.3056204,557.982165 54.0161768,557.264937 54.0276024,556.359353 L55.0958886,556.359353 Z M29,563.668043 L30.3424986,563.668043 L34.5813667,570.459893 L34.5813667,563.668043 L35.6610784,563.668043 L35.6610784,572.052268 L34.3871329,572.052268 L30.0854244,565.266125 L30.0854244,572.052268 L29,572.052268 L29,563.668043 Z M44.3616122,564.866605 C44.9176569,565.608575 45.1956751,566.557903 45.1956751,567.714616 C45.1956751,568.966453 44.877668,570.007099 44.2416442,570.836584 C43.4951731,571.810658 42.4307061,572.297688 41.0482112,572.297688 C39.757121,572.297688 38.7421641,571.871537 38.0033101,571.019222 C37.3444351,570.197347 37.0150025,569.158604 37.0150025,567.902961 C37.0150025,566.769078 37.2968292,565.798824 37.8604911,564.992168 C38.584111,563.957215 39.6542907,563.439745 41.0710623,563.439745 C42.5525788,563.439745 43.6494178,563.91536 44.3616122,564.866605 Z M43.3590227,570.205912 C43.8065245,569.488674 44.0302721,568.663958 44.0302721,567.731738 C44.0302721,566.746249 43.7722483,565.952923 43.2561931,565.351737 C42.7401378,564.750551 42.034619,564.449962 41.1396154,564.449962 C40.2712715,564.449962 39.5628963,564.747697 39.0144686,565.343176 C38.4660409,565.938655 38.1918311,566.81664 38.1918311,567.977158 C38.1918311,568.905572 38.4270041,569.688435 38.897357,570.325768 C39.36771,570.963102 40.1303558,571.281764 41.1853175,571.281764 C42.1869598,571.281764 42.911521,570.92315 43.3590227,570.205912 Z M47.2922581,569.346943 C47.3189178,569.822565 47.4312676,570.208764 47.629311,570.505553 C48.006355,571.061079 48.6709328,571.338838 49.6230643,571.338838 C50.0496192,571.338838 50.438083,571.27796 50.7884674,571.1562 C51.466385,570.920292 51.8053387,570.497946 51.8053387,569.889149 C51.8053387,569.432552 51.6625211,569.107232 51.3768817,568.913178 C51.0874337,568.722929 50.6342259,568.557415 50.0172447,568.416631 L48.8804055,568.159796 C48.1377429,567.992377 47.6121742,567.807838 47.3036837,567.606175 C46.77049,567.256117 46.5038972,566.73294 46.5038972,566.036629 C46.5038972,565.283244 46.7647773,564.664944 47.2865454,564.181712 C47.8083134,563.69848 48.5471563,563.456868 49.5030963,563.456868 C50.3828658,563.456868 51.1302778,563.668992 51.7453547,564.093247 C52.3604316,564.517502 52.6679655,565.195729 52.6679655,566.127948 L51.5996793,566.127948 C51.5425514,565.678961 51.4206804,565.334616 51.2340627,565.094902 C50.8874868,564.65733 50.2990784,564.438547 49.4688198,564.438547 C48.7985192,564.438547 48.3167479,564.579329 48.0234914,564.860897 C47.7302349,565.142466 47.5836089,565.469689 47.5836089,565.842577 C47.5836089,566.253514 47.75499,566.554103 48.0977573,566.744352 C48.3224603,566.866111 48.8308909,567.018308 49.6230643,567.200947 L50.7998929,567.469196 C51.3673632,567.598565 51.8053371,567.775494 52.1138277,567.999988 C52.6470214,568.3919 52.9136142,568.960736 52.9136142,569.706511 C52.9136142,570.634926 52.5756126,571.298884 51.8995992,571.698407 C51.2235859,572.09793 50.4380892,572.297688 49.5430856,572.297688 C48.4995496,572.297688 47.682633,572.031344 47.0923115,571.498647 C46.50199,570.969755 46.2125464,570.252527 46.223972,569.346943 L47.2922581,569.346943 Z M539.538991,565.55728 C539.535287,565.557753 539.531556,565.558151 539.527797,565.558473 C537.89267,565.723778 535.839059,565.154943 533.366902,563.851949 C532.111358,564.328417 530.680644,564.624989 529.074715,564.741675 C526.748552,564.897257 524.626812,564.746539 522.709431,564.289519 C522.27145,567.702584 521.692351,569.754281 520.972117,570.444673 C518.860078,572.46723 516.203036,573.595177 513.000912,573.828549 C510.655283,574.003578 508.876623,573.383693 507.664877,571.968876 C506.453131,570.554059 505.954327,568.981253 506.168451,567.250411 C506.450705,564.965311 507.239058,563.093502 508.533534,561.634927 C508.68926,561.459898 508.830385,561.382109 508.956913,561.401556 C509.08344,561.421004 509.149137,561.498793 509.154003,561.634927 C509.158869,561.771061 509.112639,561.90233 509.01531,562.02874 C506.776743,564.936165 506.669683,567.391396 508.694126,569.394505 C509.71608,570.396059 511.049467,570.896829 512.694327,570.896829 C515.458471,570.896829 517.915991,570.191862 520.066962,568.781907 C520.728799,568.344334 521.244635,567.722018 521.614485,566.914941 C521.66315,566.807978 521.677749,566.666985 521.658283,566.491956 C521.463625,564.731943 520.957522,563.263666 520.139958,562.087083 C519.984232,561.863435 519.930702,561.683547 519.979366,561.547413 L520.91372,559.09702 C521.098645,558.746962 521.278701,558.722653 521.453893,559.024092 L522.548839,560.905643 C523.152278,561.284873 524.23748,561.54255 525.804477,561.678684 C527.264412,560.045081 528.92628,558.533048 530.79013,557.14254 C532.65398,555.752032 534.087128,555.051927 535.089617,555.042203 C535.83905,555.032479 536.500877,555.316897 537.075118,555.895465 C537.649359,556.474033 538.077601,557.15226 538.359855,557.930166 C538.418252,558.095471 538.432851,558.260774 538.403653,558.426079 C538.277125,559.359567 537.69316,560.487514 536.651739,561.809955 C536.534945,561.916917 536.418152,562.019016 536.301357,562.116254 C537.520808,562.570705 538.591075,562.818434 539.512189,562.859448 C539.526869,562.859384 539.541804,562.859609 539.556995,562.860124 C540.734676,562.908743 541.620357,562.592723 542.214064,561.912055 C542.243262,561.87316 542.248129,561.805094 542.228663,561.707855 C542.111868,561.134149 541.844217,560.55559 541.425703,559.97216 C541.25051,559.729065 541.221312,559.485972 541.338107,559.242877 L542.184865,557.390496 C542.360057,557.011267 542.54498,557.006405 542.739638,557.375911 C543.528002,558.824761 543.673994,560.575025 543.177616,562.626753 C542.700704,564.581243 541.493842,565.558473 539.556995,565.558473 C539.55099,565.558473 539.544989,565.558075 539.538991,565.55728 Z M589.322522,565.55728 C589.318819,565.557753 589.315087,565.558151 589.311328,565.558473 C587.676201,565.723778 585.62259,565.154943 583.150434,563.851949 C581.89489,564.328417 580.464175,564.624989 578.858246,564.741675 C576.532083,564.897257 574.410343,564.746539 572.492962,564.289519 C572.054982,567.702584 571.475883,569.754281 570.755648,570.444673 C568.643609,572.46723 565.986567,573.595177 562.784444,573.828549 C560.438815,574.003578 558.660154,573.383693 557.448408,571.968876 C556.236662,570.554059 555.737859,568.981253 555.951982,567.250411 C556.234236,564.965311 557.022589,563.093502 558.317065,561.634927 C558.472791,561.459898 558.613916,561.382109 558.740444,561.401556 C558.866972,561.421004 558.932668,561.498793 558.937534,561.634927 C558.942401,561.771061 558.89617,561.90233 558.798841,562.02874 C556.560274,564.936165 556.453214,567.391396 558.477657,569.394505 C559.499612,570.396059 560.832999,570.896829 562.477859,570.896829 C565.242002,570.896829 567.699522,570.191862 569.850493,568.781907 C570.51233,568.344334 571.028166,567.722018 571.398016,566.914941 C571.446681,566.807978 571.46128,566.666985 571.441814,566.491956 C571.247156,564.731943 570.741053,563.263666 569.92349,562.087083 C569.767763,561.863435 569.714233,561.683547 569.762897,561.547413 L570.697251,559.09702 C570.882176,558.746962 571.062232,558.722653 571.237424,559.024092 L572.33237,560.905643 C572.93581,561.284873 574.021012,561.54255 575.588009,561.678684 C577.047944,560.045081 578.709811,558.533048 580.573661,557.14254 C582.437512,555.752032 583.87066,555.051927 584.873148,555.042203 C585.622581,555.032479 586.284409,555.316897 586.85865,555.895465 C587.432891,556.474033 587.861132,557.15226 588.143386,557.930166 C588.201783,558.095471 588.216383,558.260774 588.187184,558.426079 C588.060656,559.359567 587.476691,560.487514 586.435271,561.809955 C586.318476,561.916917 586.201683,562.019016 586.084888,562.116254 C587.304339,562.570705 588.374606,562.818434 589.29572,562.859448 C589.3104,562.859384 589.325336,562.859609 589.340527,562.860124 C590.518207,562.908743 591.403888,562.592723 591.997595,561.912055 C592.026794,561.87316 592.03166,561.805094 592.012194,561.707855 C591.895399,561.134149 591.627749,560.55559 591.209234,559.97216 C591.034042,559.729065 591.004844,559.485972 591.121638,559.242877 L591.968396,557.390496 C592.143589,557.011267 592.328511,557.006405 592.523169,557.375911 C593.311534,558.824761 593.457525,560.575025 592.961147,562.626753 C592.484235,564.581243 591.277374,565.558473 589.340527,565.558473 C589.334521,565.558473 589.32852,565.558075 589.322522,565.55728 Z M339.993547,44.7549108 C339.989843,44.7553843 339.986112,44.755782 339.982353,44.7561039 C338.347226,44.921409 336.293615,44.3525735 333.821458,43.0495802 C332.565914,43.5260479 331.1352,43.8226203 329.529271,43.9393062 C327.203108,44.0948875 325.081368,43.9441704 323.163987,43.4871504 C322.726006,46.9002148 322.146907,48.9519123 321.426673,49.6423042 C319.314634,51.664861 316.657592,52.7928084 313.455468,53.0261803 C311.109839,53.2012092 309.331179,52.5813244 308.119433,51.166507 C306.907687,49.7516897 306.408883,48.1788837 306.623007,46.4480419 C306.905261,44.1629418 307.693614,42.2911325 308.98809,40.832558 C309.143816,40.657529 309.284941,40.5797395 309.411469,40.5991872 C309.537996,40.6186349 309.603693,40.6964243 309.608559,40.832558 C309.613425,40.9686916 309.567195,41.0999613 309.469866,41.2263711 C307.231299,44.1337964 307.124239,46.5890268 309.148682,48.5921358 C310.170636,49.5936903 311.504023,50.0944601 313.148883,50.0944601 C315.913027,50.0944601 318.370547,49.389493 320.521518,47.9795376 C321.183355,47.5419652 321.699191,46.9196494 322.069041,46.1125715 C322.117706,46.0056093 322.132305,45.8646159 322.112839,45.689587 C321.918181,43.9295737 321.412078,42.4612973 320.594514,41.2847138 C320.438788,41.0610657 320.385258,40.8811776 320.433922,40.7450439 L321.368276,38.2946509 C321.553201,37.944593 321.733257,37.9202838 321.908449,38.2217226 L323.003395,40.1032743 C323.606835,40.4825037 324.692037,40.7401814 326.259033,40.876315 C327.718968,39.2427115 329.380836,37.7306785 331.244686,36.3401708 C333.108536,34.949663 334.541684,34.2495578 335.544173,34.2398339 C336.293606,34.2301101 336.955433,34.5145279 337.529674,35.0930958 C338.103915,35.6716637 338.532157,36.3498907 338.814411,37.1277971 C338.872808,37.2931022 338.887407,37.4584049 338.858209,37.62371 C338.731681,38.5571977 338.147716,39.6851451 337.106295,41.007586 C336.989501,41.1145482 336.872708,41.2166469 336.755913,41.3138852 C337.975364,41.768336 339.045631,42.0160647 339.966745,42.0570787 C339.981425,42.0570147 339.99636,42.05724 340.011551,42.0577545 C341.189232,42.1063736 342.074913,41.7903539 342.66862,41.1096857 C342.697818,41.0707904 342.702685,41.0027246 342.683219,40.9054863 C342.566424,40.3317803 342.298773,39.7532211 341.880259,39.1697913 C341.705066,38.9266955 341.675868,38.6836034 341.792663,38.4405076 L342.639421,36.5881272 C342.814613,36.2088978 342.999536,36.204036 343.194194,36.5735415 C343.982558,38.0223923 344.12855,39.7726555 343.632172,41.8243837 C343.15526,43.7788736 341.948398,44.7561039 340.011551,44.7561039 C340.005546,44.7561039 339.999545,44.7557062 339.993547,44.7549108 Z M389.777078,44.7549108 C389.773375,44.7553843 389.769643,44.755782 389.765884,44.7561039 C388.130757,44.921409 386.077146,44.3525735 383.60499,43.0495802 C382.349446,43.5260479 380.918731,43.8226203 379.312802,43.9393062 C376.98664,44.0948875 374.864899,43.9441704 372.947518,43.4871504 C372.509538,46.9002148 371.930439,48.9519123 371.210204,49.6423042 C369.098165,51.664861 366.441123,52.7928084 363.239,53.0261803 C360.893371,53.2012092 359.11471,52.5813244 357.902964,51.166507 C356.691218,49.7516897 356.192415,48.1788837 356.406538,46.4480419 C356.688792,44.1629418 357.477145,42.2911325 358.771621,40.832558 C358.927347,40.657529 359.068472,40.5797395 359.195,40.5991872 C359.321528,40.6186349 359.387224,40.6964243 359.39209,40.832558 C359.396957,40.9686916 359.350726,41.0999613 359.253397,41.2263711 C357.01483,44.1337964 356.90777,46.5890268 358.932213,48.5921358 C359.954168,49.5936903 361.287555,50.0944601 362.932415,50.0944601 C365.696558,50.0944601 368.154078,49.389493 370.305049,47.9795376 C370.966886,47.5419652 371.482722,46.9196494 371.852572,46.1125715 C371.901237,46.0056093 371.915836,45.8646159 371.89637,45.689587 C371.701712,43.9295737 371.195609,42.4612973 370.378046,41.2847138 C370.222319,41.0610657 370.168789,40.8811776 370.217453,40.7450439 L371.151807,38.2946509 C371.336732,37.944593 371.516788,37.9202838 371.69198,38.2217226 L372.786926,40.1032743 C373.390366,40.4825037 374.475568,40.7401814 376.042565,40.876315 C377.5025,39.2427115 379.164367,37.7306785 381.028217,36.3401708 C382.892068,34.949663 384.325216,34.2495578 385.327704,34.2398339 C386.077137,34.2301101 386.738965,34.5145279 387.313206,35.0930958 C387.887447,35.6716637 388.315688,36.3498907 388.597942,37.1277971 C388.656339,37.2931022 388.670939,37.4584049 388.64174,37.62371 C388.515212,38.5571977 387.931247,39.6851451 386.889827,41.007586 C386.773032,41.1145482 386.656239,41.2166469 386.539444,41.3138852 C387.758895,41.768336 388.829162,42.0160647 389.750276,42.0570787 C389.764956,42.0570147 389.779892,42.05724 389.795083,42.0577545 C390.972763,42.1063736 391.858444,41.7903539 392.452151,41.1096857 C392.48135,41.0707904 392.486216,41.0027246 392.46675,40.9054863 C392.349955,40.3317803 392.082305,39.7532211 391.66379,39.1697913 C391.488598,38.9266955 391.4594,38.6836034 391.576194,38.4405076 L392.422952,36.5881272 C392.598145,36.2088978 392.783067,36.204036 392.977725,36.5735415 C393.76609,38.0223923 393.912081,39.7726555 393.415703,41.8243837 C392.938791,43.7788736 391.73193,44.7561039 389.795083,44.7561039 C389.789077,44.7561039 389.783076,44.7557062 389.777078,44.7549108 Z M55.0958886,569.346943 C55.1225482,569.822565 55.2348981,570.208764 55.4329414,570.505553 C55.8099855,571.061079 56.4745633,571.338838 57.4266947,571.338838 C57.8532496,571.338838 58.2417134,571.27796 58.5920978,571.1562 C59.2700154,570.920292 59.6089691,570.497946 59.6089691,569.889149 C59.6089691,569.432552 59.4661515,569.107232 59.1805121,568.913178 C58.8910641,568.722929 58.4378564,568.557415 57.8208752,568.416631 L56.6840359,568.159796 C55.9413733,567.992377 55.4158047,567.807838 55.1073141,567.606175 C54.5741205,567.256117 54.3075276,566.73294 54.3075276,566.036629 C54.3075276,565.283244 54.5684078,564.664944 55.0901758,564.181712 C55.6119438,563.69848 56.3507868,563.456868 57.3067267,563.456868 C58.1864962,563.456868 58.9339082,563.668992 59.5489851,564.093247 C60.164062,564.517502 60.4715959,565.195729 60.4715959,566.127948 L59.4033097,566.127948 C59.3461819,565.678961 59.2243109,565.334616 59.0376931,565.094902 C58.6911172,564.65733 58.1027088,564.438547 57.2724502,564.438547 C56.6021496,564.438547 56.1203783,564.579329 55.8271219,564.860897 C55.5338654,565.142466 55.3872393,565.469689 55.3872393,565.842577 C55.3872393,566.253514 55.5586204,566.554103 55.9013877,566.744352 C56.1260908,566.866111 56.6345213,567.018308 57.4266947,567.200947 L58.6035233,567.469196 C59.1709937,567.598565 59.6089676,567.775494 59.9174582,567.999988 C60.4506518,568.3919 60.7172446,568.960736 60.7172446,569.706511 C60.7172446,570.634926 60.379243,571.298884 59.7032296,571.698407 C59.0272163,572.09793 58.2417196,572.297688 57.3467161,572.297688 C56.30318,572.297688 55.4862635,572.031344 54.8959419,571.498647 C54.3056204,570.969755 54.0161768,570.252527 54.0276024,569.346943 L55.0958886,569.346943 Z M29,29.8780836 L30.3424986,29.8780836 L34.5813667,36.6699338 L34.5813667,29.8780836 L35.6610784,29.8780836 L35.6610784,38.2623088 L34.3871329,38.2623088 L30.0854244,31.476166 L30.0854244,38.2623088 L29,38.2623088 L29,29.8780836 Z M44.3616122,31.0766454 C44.9176569,31.818616 45.1956751,32.7679435 45.1956751,33.9246566 C45.1956751,35.176494 44.877668,36.2171397 44.2416442,37.0466247 C43.4951731,38.0206988 42.4307061,38.5077286 41.0482112,38.5077286 C39.757121,38.5077286 38.7421641,38.0815775 38.0033101,37.2292627 C37.3444351,36.4073876 37.0150025,35.3686444 37.0150025,34.113002 C37.0150025,32.9791188 37.2968292,32.0088642 37.8604911,31.2022091 C38.584111,30.1672553 39.6542907,29.6497862 41.0710623,29.6497862 C42.5525788,29.6497862 43.6494178,30.1254012 44.3616122,31.0766454 Z M43.3590227,36.4159529 C43.8065245,35.6987147 44.0302721,34.8739983 44.0302721,33.9417789 C44.0302721,32.9562898 43.7722483,32.162964 43.2561931,31.5617776 C42.7401378,30.9605912 42.034619,30.6600025 41.1396154,30.6600025 C40.2712715,30.6600025 39.5628963,30.9577375 39.0144686,31.5532164 C38.4660409,32.1486954 38.1918311,33.0266807 38.1918311,34.1871987 C38.1918311,35.1156131 38.4270041,35.8984754 38.897357,36.535809 C39.36771,37.1731427 40.1303558,37.4918048 41.1853175,37.4918048 C42.1869598,37.4918048 42.911521,37.1331911 43.3590227,36.4159529 Z M47.2922581,35.5569836 C47.3189178,36.0326057 47.4312676,36.4188051 47.629311,36.7155933 C48.006355,37.27112 48.6709328,37.5488791 49.6230643,37.5488791 C50.0496192,37.5488791 50.438083,37.4880004 50.7884674,37.3662412 C51.466385,37.1303326 51.8053387,36.7079864 51.8053387,36.0991901 C51.8053387,35.6425929 51.6625211,35.3172722 51.3768817,35.1232184 C51.0874337,34.9329695 50.6342259,34.7674555 50.0172447,34.6266713 L48.8804055,34.3698367 C48.1377429,34.2024177 47.6121742,34.017879 47.3036837,33.8162153 C46.77049,33.4661574 46.5038972,32.9429809 46.5038972,32.2466701 C46.5038972,31.4932846 46.7647773,30.8749851 47.2865454,30.391753 C47.8083134,29.9085209 48.5471563,29.6669085 49.5030963,29.6669085 C50.3828658,29.6669085 51.1302778,29.8790328 51.7453547,30.3032877 C52.3604316,30.7275427 52.6679655,31.4057697 52.6679655,32.337989 L51.5996793,32.337989 C51.5425514,31.8890017 51.4206804,31.5446565 51.2340627,31.3049429 C50.8874868,30.8673706 50.2990784,30.6485877 49.4688198,30.6485877 C48.7985192,30.6485877 48.3167479,30.7893697 48.0234914,31.070938 C47.7302349,31.3525063 47.5836089,31.6797294 47.5836089,32.0526172 C47.5836089,32.4635547 47.75499,32.7641434 48.0977573,32.9543923 C48.3224603,33.0761515 48.8308909,33.2283483 49.6230643,33.4109872 L50.7998929,33.6792368 C51.3673632,33.808606 51.8053371,33.9855348 52.1138277,34.2100284 C52.6470214,34.6019411 52.9136142,35.1707766 52.9136142,35.9165521 C52.9136142,36.8449665 52.5756126,37.5089251 51.8995992,37.9084477 C51.2235859,38.3079703 50.4380892,38.5077286 49.5430856,38.5077286 C48.4995496,38.5077286 47.682633,38.2413842 47.0923115,37.7086874 C46.50199,37.1797956 46.2125464,36.4625681 46.223972,35.5569836 L47.2922581,35.5569836 Z M55.0958886,35.5569836 C55.1225482,36.0326057 55.2348981,36.4188051 55.4329414,36.7155933 C55.8099855,37.27112 56.4745633,37.5488791 57.4266947,37.5488791 C57.8532496,37.5488791 58.2417134,37.4880004 58.5920978,37.3662412 C59.2700154,37.1303326 59.6089691,36.7079864 59.6089691,36.0991901 C59.6089691,35.6425929 59.4661515,35.3172722 59.1805121,35.1232184 C58.8910641,34.9329695 58.4378564,34.7674555 57.8208752,34.6266713 L56.6840359,34.3698367 C55.9413733,34.2024177 55.4158047,34.017879 55.1073141,33.8162153 C54.5741205,33.4661574 54.3075276,32.9429809 54.3075276,32.2466701 C54.3075276,31.4932846 54.5684078,30.8749851 55.0901758,30.391753 C55.6119438,29.9085209 56.3507868,29.6669085 57.3067267,29.6669085 C58.1864962,29.6669085 58.9339082,29.8790328 59.5489851,30.3032877 C60.164062,30.7275427 60.4715959,31.4057697 60.4715959,32.337989 L59.4033097,32.337989 C59.3461819,31.8890017 59.2243109,31.5446565 59.0376931,31.3049429 C58.6911172,30.8673706 58.1027088,30.6485877 57.2724502,30.6485877 C56.6021496,30.6485877 56.1203783,30.7893697 55.8271219,31.070938 C55.5338654,31.3525063 55.3872393,31.6797294 55.3872393,32.0526172 C55.3872393,32.4635547 55.5586204,32.7641434 55.9013877,32.9543923 C56.1260908,33.0761515 56.6345213,33.2283483 57.4266947,33.4109872 L58.6035233,33.6792368 C59.1709937,33.808606 59.6089676,33.9855348 59.9174582,34.2100284 C60.4506518,34.6019411 60.7172446,35.1707766 60.7172446,35.9165521 C60.7172446,36.8449665 60.379243,37.5089251 59.7032296,37.9084477 C59.0272163,38.3079703 58.2417196,38.5077286 57.3467161,38.5077286 C56.30318,38.5077286 55.4862635,38.2413842 54.8959419,37.7086874 C54.3056204,37.1797956 54.0161768,36.4625681 54.0276024,35.5569836 L55.0958886,35.5569836 Z M29,42.8656739 L30.3424986,42.8656739 L34.5813667,49.6575241 L34.5813667,42.8656739 L35.6610784,42.8656739 L35.6610784,51.249899 L34.3871329,51.249899 L30.0854244,44.4637563 L30.0854244,51.249899 L29,51.249899 L29,42.8656739 Z M44.3616122,44.0642357 C44.9176569,44.8062062 45.1956751,45.7555338 45.1956751,46.9122468 C45.1956751,48.1640843 44.877668,49.2047299 44.2416442,50.0342149 C43.4951731,51.0082891 42.4307061,51.4953188 41.0482112,51.4953188 C39.757121,51.4953188 38.7421641,51.0691678 38.0033101,50.2168529 C37.3444351,49.3949779 37.0150025,48.3562347 37.0150025,47.1005922 C37.0150025,45.9667091 37.2968292,44.9964545 37.8604911,44.1897993 C38.584111,43.1548455 39.6542907,42.6373764 41.0710623,42.6373764 C42.5525788,42.6373764 43.6494178,43.1129914 44.3616122,44.0642357 Z M43.3590227,49.4035431 C43.8065245,48.6863049 44.0302721,47.8615885 44.0302721,46.9293691 C44.0302721,45.9438801 43.7722483,45.1505542 43.2561931,44.5493678 C42.7401378,43.9481815 42.034619,43.6475928 41.1396154,43.6475928 C40.2712715,43.6475928 39.5628963,43.9453278 39.0144686,44.5408067 C38.4660409,45.1362856 38.1918311,46.0142709 38.1918311,47.1747889 C38.1918311,48.1032033 38.4270041,48.8860656 38.897357,49.5233993 C39.36771,50.160733 40.1303558,50.479395 41.1853175,50.479395 C42.1869598,50.479395 42.911521,50.1207813 43.3590227,49.4035431 Z M47.2922581,48.5445738 C47.3189178,49.020196 47.4312676,49.4063954 47.629311,49.7031836 C48.006355,50.2587102 48.6709328,50.5364694 49.6230643,50.5364694 C50.0496192,50.5364694 50.438083,50.4755907 50.7884674,50.3538314 C51.466385,50.1179228 51.8053387,49.6955767 51.8053387,49.0867804 C51.8053387,48.6301831 51.6625211,48.3048624 51.3768817,48.1108086 C51.0874337,47.9205598 50.6342259,47.7550457 50.0172447,47.6142616 L48.8804055,47.3574269 C48.1377429,47.1900079 47.6121742,47.0054693 47.3036837,46.8038055 C46.77049,46.4537476 46.5038972,45.9305711 46.5038972,45.2342603 C46.5038972,44.4808748 46.7647773,43.8625753 47.2865454,43.3793432 C47.8083134,42.8961111 48.5471563,42.6544987 49.5030963,42.6544987 C50.3828658,42.6544987 51.1302778,42.866623 51.7453547,43.290878 C52.3604316,43.7151329 52.6679655,44.3933599 52.6679655,45.3255793 L51.5996793,45.3255793 C51.5425514,44.876592 51.4206804,44.5322467 51.2340627,44.2925332 C50.8874868,43.8549608 50.2990784,43.6361779 49.4688198,43.6361779 C48.7985192,43.6361779 48.3167479,43.7769599 48.0234914,44.0585283 C47.7302349,44.3400966 47.5836089,44.6673197 47.5836089,45.0402074 C47.5836089,45.451145 47.75499,45.7517337 48.0977573,45.9419825 C48.3224603,46.0637418 48.8308909,46.2159386 49.6230643,46.3985775 L50.7998929,46.666827 C51.3673632,46.7961962 51.8053371,46.973125 52.1138277,47.1976187 C52.6470214,47.5895313 52.9136142,48.1583669 52.9136142,48.9041424 C52.9136142,49.8325568 52.5756126,50.4965153 51.8995992,50.8960379 C51.2235859,51.2955605 50.4380892,51.4953188 49.5430856,51.4953188 C48.4995496,51.4953188 47.682633,51.2289744 47.0923115,50.6962776 C46.50199,50.1673858 46.2125464,49.4501584 46.223972,48.5445738 L47.2922581,48.5445738 Z M55.0958886,48.5445738 C55.1225482,49.020196 55.2348981,49.4063954 55.4329414,49.7031836 C55.8099855,50.2587102 56.4745633,50.5364694 57.4266947,50.5364694 C57.8532496,50.5364694 58.2417134,50.4755907 58.5920978,50.3538314 C59.2700154,50.1179228 59.6089691,49.6955767 59.6089691,49.0867804 C59.6089691,48.6301831 59.4661515,48.3048624 59.1805121,48.1108086 C58.8910641,47.9205598 58.4378564,47.7550457 57.8208752,47.6142616 L56.6840359,47.3574269 C55.9413733,47.1900079 55.4158047,47.0054693 55.1073141,46.8038055 C54.5741205,46.4537476 54.3075276,45.9305711 54.3075276,45.2342603 C54.3075276,44.4808748 54.5684078,43.8625753 55.0901758,43.3793432 C55.6119438,42.8961111 56.3507868,42.6544987 57.3067267,42.6544987 C58.1864962,42.6544987 58.9339082,42.866623 59.5489851,43.290878 C60.164062,43.7151329 60.4715959,44.3933599 60.4715959,45.3255793 L59.4033097,45.3255793 C59.3461819,44.876592 59.2243109,44.5322467 59.0376931,44.2925332 C58.6911172,43.8549608 58.1027088,43.6361779 57.2724502,43.6361779 C56.6021496,43.6361779 56.1203783,43.7769599 55.8271219,44.0585283 C55.5338654,44.3400966 55.3872393,44.6673197 55.3872393,45.0402074 C55.3872393,45.451145 55.5586204,45.7517337 55.9013877,45.9419825 C56.1260908,46.0637418 56.6345213,46.2159386 57.4266947,46.3985775 L58.6035233,46.666827 C59.1709937,46.7961962 59.6089676,46.973125 59.9174582,47.1976187 C60.4506518,47.5895313 60.7172446,48.1583669 60.7172446,48.9041424 C60.7172446,49.8325568 60.379243,50.4965153 59.7032296,50.8960379 C59.0272163,51.2955605 58.2417196,51.4953188 57.3467161,51.4953188 C56.30318,51.4953188 55.4862635,51.2289744 54.8959419,50.6962776 C54.3056204,50.1673858 54.0161768,49.4501584 54.0276024,48.5445738 L55.0958886,48.5445738 Z M784.282755,550.680453 L785.625254,550.680453 L789.864122,557.472303 L789.864122,550.680453 L790.943834,550.680453 L790.943834,559.064678 L789.669888,559.064678 L785.36818,552.278535 L785.36818,559.064678 L784.282755,559.064678 L784.282755,550.680453 Z M799.644368,551.879015 C800.200412,552.620985 800.478431,553.570313 800.478431,554.727026 C800.478431,555.978863 800.160423,557.019509 799.5244,557.848994 C798.777929,558.823068 797.713462,559.310098 796.330967,559.310098 C795.039876,559.310098 794.024919,558.883947 793.286065,558.031632 C792.627191,557.209757 792.297758,556.171014 792.297758,554.915371 C792.297758,553.781488 792.579585,552.811233 793.143246,552.004578 C793.866866,550.969624 794.937046,550.452155 796.353818,550.452155 C797.835334,550.452155 798.932173,550.92777 799.644368,551.879015 Z M798.641778,557.218322 C799.08928,556.501084 799.313027,555.676367 799.313027,554.744148 C799.313027,553.758659 799.055004,552.965333 798.538948,552.364147 C798.022893,551.76296 797.317374,551.462372 796.422371,551.462372 C795.554027,551.462372 794.845652,551.760107 794.297224,552.355586 C793.748796,552.951064 793.474587,553.82905 793.474587,554.989568 C793.474587,555.917982 793.70976,556.700844 794.180112,557.338178 C794.650465,557.975512 795.413111,558.294174 796.468073,558.294174 C797.469715,558.294174 798.194276,557.93556 798.641778,557.218322 Z M802.575014,556.359353 C802.601673,556.834975 802.714023,557.221174 802.912066,557.517962 C803.28911,558.073489 803.953688,558.351248 804.90582,558.351248 C805.332375,558.351248 805.720838,558.290369 806.071223,558.16861 C806.74914,557.932702 807.088094,557.510356 807.088094,556.901559 C807.088094,556.444962 806.945277,556.119641 806.659637,555.925587 C806.370189,555.735339 805.916981,555.569825 805.3,555.42904 L804.163161,555.172206 C803.420498,555.004787 802.89493,554.820248 802.586439,554.618584 C802.053245,554.268526 801.786653,553.74535 801.786653,553.049039 C801.786653,552.295654 802.047533,551.677354 802.569301,551.194122 C803.091069,550.71089 803.829912,550.469278 804.785852,550.469278 C805.665621,550.469278 806.413033,550.681402 807.02811,551.105657 C807.643187,551.529912 807.950721,552.208139 807.950721,553.140358 L806.882435,553.140358 C806.825307,552.691371 806.703436,552.347026 806.516818,552.107312 C806.170242,551.66974 805.581834,551.450957 804.751575,551.450957 C804.081275,551.450957 803.599503,551.591739 803.306247,551.873307 C803.01299,552.154875 802.866364,552.482099 802.866364,552.854986 C802.866364,553.265924 803.037745,553.566512 803.380513,553.756761 C803.605216,553.878521 804.113646,554.030717 804.90582,554.213356 L806.082648,554.481606 C806.650119,554.610975 807.088093,554.787904 807.396583,555.012398 C807.929777,555.40431 808.19637,555.973146 808.19637,556.718921 C808.19637,557.647336 807.858368,558.311294 807.182355,558.710817 C806.506341,559.110339 805.720845,559.310098 804.825841,559.310098 C803.782305,559.310098 802.965388,559.043753 802.375067,558.511056 C801.784745,557.982165 801.495302,557.264937 801.506727,556.359353 L802.575014,556.359353 Z M810.378644,556.359353 C810.405304,556.834975 810.517653,557.221174 810.715697,557.517962 C811.092741,558.073489 811.757319,558.351248 812.70945,558.351248 C813.136005,558.351248 813.524469,558.290369 813.874853,558.16861 C814.552771,557.932702 814.891725,557.510356 814.891725,556.901559 C814.891725,556.444962 814.748907,556.119641 814.463268,555.925587 C814.17382,555.735339 813.720612,555.569825 813.103631,555.42904 L811.966791,555.172206 C811.224129,555.004787 810.69856,554.820248 810.390069,554.618584 C809.856876,554.268526 809.590283,553.74535 809.590283,553.049039 C809.590283,552.295654 809.851163,551.677354 810.372931,551.194122 C810.894699,550.71089 811.633542,550.469278 812.589482,550.469278 C813.469252,550.469278 814.216664,550.681402 814.831741,551.105657 C815.446817,551.529912 815.754351,552.208139 815.754351,553.140358 L814.686065,553.140358 C814.628937,552.691371 814.507066,552.347026 814.320449,552.107312 C813.973873,551.66974 813.385464,551.450957 812.555206,551.450957 C811.884905,551.450957 811.403134,551.591739 811.109877,551.873307 C810.816621,552.154875 810.669995,552.482099 810.669995,552.854986 C810.669995,553.265924 810.841376,553.566512 811.184143,553.756761 C811.408846,553.878521 811.917277,554.030717 812.70945,554.213356 L813.886279,554.481606 C814.453749,554.610975 814.891723,554.787904 815.200214,555.012398 C815.733407,555.40431 816,555.973146 816,556.718921 C816,557.647336 815.661998,558.311294 814.985985,558.710817 C814.309972,559.110339 813.524475,559.310098 812.629471,559.310098 C811.585935,559.310098 810.769019,559.043753 810.178697,558.511056 C809.588376,557.982165 809.298932,557.264937 809.310358,556.359353 L810.378644,556.359353 Z M784.282755,563.668043 L785.625254,563.668043 L789.864122,570.459893 L789.864122,563.668043 L790.943834,563.668043 L790.943834,572.052268 L789.669888,572.052268 L785.36818,565.266125 L785.36818,572.052268 L784.282755,572.052268 L784.282755,563.668043 Z M799.644368,564.866605 C800.200412,565.608575 800.478431,566.557903 800.478431,567.714616 C800.478431,568.966453 800.160423,570.007099 799.5244,570.836584 C798.777929,571.810658 797.713462,572.297688 796.330967,572.297688 C795.039876,572.297688 794.024919,571.871537 793.286065,571.019222 C792.627191,570.197347 792.297758,569.158604 792.297758,567.902961 C792.297758,566.769078 792.579585,565.798824 793.143246,564.992168 C793.866866,563.957215 794.937046,563.439745 796.353818,563.439745 C797.835334,563.439745 798.932173,563.91536 799.644368,564.866605 Z M798.641778,570.205912 C799.08928,569.488674 799.313027,568.663958 799.313027,567.731738 C799.313027,566.746249 799.055004,565.952923 798.538948,565.351737 C798.022893,564.750551 797.317374,564.449962 796.422371,564.449962 C795.554027,564.449962 794.845652,564.747697 794.297224,565.343176 C793.748796,565.938655 793.474587,566.81664 793.474587,567.977158 C793.474587,568.905572 793.70976,569.688435 794.180112,570.325768 C794.650465,570.963102 795.413111,571.281764 796.468073,571.281764 C797.469715,571.281764 798.194276,570.92315 798.641778,570.205912 Z M802.575014,569.346943 C802.601673,569.822565 802.714023,570.208764 802.912066,570.505553 C803.28911,571.061079 803.953688,571.338838 804.90582,571.338838 C805.332375,571.338838 805.720838,571.27796 806.071223,571.1562 C806.74914,570.920292 807.088094,570.497946 807.088094,569.889149 C807.088094,569.432552 806.945277,569.107232 806.659637,568.913178 C806.370189,568.722929 805.916981,568.557415 805.3,568.416631 L804.163161,568.159796 C803.420498,567.992377 802.89493,567.807838 802.586439,567.606175 C802.053245,567.256117 801.786653,566.73294 801.786653,566.036629 C801.786653,565.283244 802.047533,564.664944 802.569301,564.181712 C803.091069,563.69848 803.829912,563.456868 804.785852,563.456868 C805.665621,563.456868 806.413033,563.668992 807.02811,564.093247 C807.643187,564.517502 807.950721,565.195729 807.950721,566.127948 L806.882435,566.127948 C806.825307,565.678961 806.703436,565.334616 806.516818,565.094902 C806.170242,564.65733 805.581834,564.438547 804.751575,564.438547 C804.081275,564.438547 803.599503,564.579329 803.306247,564.860897 C803.01299,565.142466 802.866364,565.469689 802.866364,565.842577 C802.866364,566.253514 803.037745,566.554103 803.380513,566.744352 C803.605216,566.866111 804.113646,567.018308 804.90582,567.200947 L806.082648,567.469196 C806.650119,567.598565 807.088093,567.775494 807.396583,567.999988 C807.929777,568.3919 808.19637,568.960736 808.19637,569.706511 C808.19637,570.634926 807.858368,571.298884 807.182355,571.698407 C806.506341,572.09793 805.720845,572.297688 804.825841,572.297688 C803.782305,572.297688 802.965388,572.031344 802.375067,571.498647 C801.784745,570.969755 801.495302,570.252527 801.506727,569.346943 L802.575014,569.346943 Z M810.378644,569.346943 C810.405304,569.822565 810.517653,570.208764 810.715697,570.505553 C811.092741,571.061079 811.757319,571.338838 812.70945,571.338838 C813.136005,571.338838 813.524469,571.27796 813.874853,571.1562 C814.552771,570.920292 814.891725,570.497946 814.891725,569.889149 C814.891725,569.432552 814.748907,569.107232 814.463268,568.913178 C814.17382,568.722929 813.720612,568.557415 813.103631,568.416631 L811.966791,568.159796 C811.224129,567.992377 810.69856,567.807838 810.390069,567.606175 C809.856876,567.256117 809.590283,566.73294 809.590283,566.036629 C809.590283,565.283244 809.851163,564.664944 810.372931,564.181712 C810.894699,563.69848 811.633542,563.456868 812.589482,563.456868 C813.469252,563.456868 814.216664,563.668992 814.831741,564.093247 C815.446817,564.517502 815.754351,565.195729 815.754351,566.127948 L814.686065,566.127948 C814.628937,565.678961 814.507066,565.334616 814.320449,565.094902 C813.973873,564.65733 813.385464,564.438547 812.555206,564.438547 C811.884905,564.438547 811.403134,564.579329 811.109877,564.860897 C810.816621,565.142466 810.669995,565.469689 810.669995,565.842577 C810.669995,566.253514 810.841376,566.554103 811.184143,566.744352 C811.408846,566.866111 811.917277,567.018308 812.70945,567.200947 L813.886279,567.469196 C814.453749,567.598565 814.891723,567.775494 815.200214,567.999988 C815.733407,568.3919 816,568.960736 816,569.706511 C816,570.634926 815.661998,571.298884 814.985985,571.698407 C814.309972,572.09793 813.524475,572.297688 812.629471,572.297688 C811.585935,572.297688 810.769019,572.031344 810.178697,571.498647 C809.588376,570.969755 809.298932,570.252527 809.310358,569.346943 L810.378644,569.346943 Z M784.282755,29.8780836 L785.625254,29.8780836 L789.864122,36.6699338 L789.864122,29.8780836 L790.943834,29.8780836 L790.943834,38.2623088 L789.669888,38.2623088 L785.36818,31.476166 L785.36818,38.2623088 L784.282755,38.2623088 L784.282755,29.8780836 Z M799.644368,31.0766454 C800.200412,31.818616 800.478431,32.7679435 800.478431,33.9246566 C800.478431,35.176494 800.160423,36.2171397 799.5244,37.0466247 C798.777929,38.0206988 797.713462,38.5077286 796.330967,38.5077286 C795.039876,38.5077286 794.024919,38.0815775 793.286065,37.2292627 C792.627191,36.4073876 792.297758,35.3686444 792.297758,34.113002 C792.297758,32.9791188 792.579585,32.0088642 793.143246,31.2022091 C793.866866,30.1672553 794.937046,29.6497862 796.353818,29.6497862 C797.835334,29.6497862 798.932173,30.1254012 799.644368,31.0766454 Z M798.641778,36.4159529 C799.08928,35.6987147 799.313027,34.8739983 799.313027,33.9417789 C799.313027,32.9562898 799.055004,32.162964 798.538948,31.5617776 C798.022893,30.9605912 797.317374,30.6600025 796.422371,30.6600025 C795.554027,30.6600025 794.845652,30.9577375 794.297224,31.5532164 C793.748796,32.1486954 793.474587,33.0266807 793.474587,34.1871987 C793.474587,35.1156131 793.70976,35.8984754 794.180112,36.535809 C794.650465,37.1731427 795.413111,37.4918048 796.468073,37.4918048 C797.469715,37.4918048 798.194276,37.1331911 798.641778,36.4159529 Z M802.575014,35.5569836 C802.601673,36.0326057 802.714023,36.4188051 802.912066,36.7155933 C803.28911,37.27112 803.953688,37.5488791 804.90582,37.5488791 C805.332375,37.5488791 805.720838,37.4880004 806.071223,37.3662412 C806.74914,37.1303326 807.088094,36.7079864 807.088094,36.0991901 C807.088094,35.6425929 806.945277,35.3172722 806.659637,35.1232184 C806.370189,34.9329695 805.916981,34.7674555 805.3,34.6266713 L804.163161,34.3698367 C803.420498,34.2024177 802.89493,34.017879 802.586439,33.8162153 C802.053245,33.4661574 801.786653,32.9429809 801.786653,32.2466701 C801.786653,31.4932846 802.047533,30.8749851 802.569301,30.391753 C803.091069,29.9085209 803.829912,29.6669085 804.785852,29.6669085 C805.665621,29.6669085 806.413033,29.8790328 807.02811,30.3032877 C807.643187,30.7275427 807.950721,31.4057697 807.950721,32.337989 L806.882435,32.337989 C806.825307,31.8890017 806.703436,31.5446565 806.516818,31.3049429 C806.170242,30.8673706 805.581834,30.6485877 804.751575,30.6485877 C804.081275,30.6485877 803.599503,30.7893697 803.306247,31.070938 C803.01299,31.3525063 802.866364,31.6797294 802.866364,32.0526172 C802.866364,32.4635547 803.037745,32.7641434 803.380513,32.9543923 C803.605216,33.0761515 804.113646,33.2283483 804.90582,33.4109872 L806.082648,33.6792368 C806.650119,33.808606 807.088093,33.9855348 807.396583,34.2100284 C807.929777,34.6019411 808.19637,35.1707766 808.19637,35.9165521 C808.19637,36.8449665 807.858368,37.5089251 807.182355,37.9084477 C806.506341,38.3079703 805.720845,38.5077286 804.825841,38.5077286 C803.782305,38.5077286 802.965388,38.2413842 802.375067,37.7086874 C801.784745,37.1797956 801.495302,36.4625681 801.506727,35.5569836 L802.575014,35.5569836 Z M810.378644,35.5569836 C810.405304,36.0326057 810.517653,36.4188051 810.715697,36.7155933 C811.092741,37.27112 811.757319,37.5488791 812.70945,37.5488791 C813.136005,37.5488791 813.524469,37.4880004 813.874853,37.3662412 C814.552771,37.1303326 814.891725,36.7079864 814.891725,36.0991901 C814.891725,35.6425929 814.748907,35.3172722 814.463268,35.1232184 C814.17382,34.9329695 813.720612,34.7674555 813.103631,34.6266713 L811.966791,34.3698367 C811.224129,34.2024177 810.69856,34.017879 810.390069,33.8162153 C809.856876,33.4661574 809.590283,32.9429809 809.590283,32.2466701 C809.590283,31.4932846 809.851163,30.8749851 810.372931,30.391753 C810.894699,29.9085209 811.633542,29.6669085 812.589482,29.6669085 C813.469252,29.6669085 814.216664,29.8790328 814.831741,30.3032877 C815.446817,30.7275427 815.754351,31.4057697 815.754351,32.337989 L814.686065,32.337989 C814.628937,31.8890017 814.507066,31.5446565 814.320449,31.3049429 C813.973873,30.8673706 813.385464,30.6485877 812.555206,30.6485877 C811.884905,30.6485877 811.403134,30.7893697 811.109877,31.070938 C810.816621,31.3525063 810.669995,31.6797294 810.669995,32.0526172 C810.669995,32.4635547 810.841376,32.7641434 811.184143,32.9543923 C811.408846,33.0761515 811.917277,33.2283483 812.70945,33.4109872 L813.886279,33.6792368 C814.453749,33.808606 814.891723,33.9855348 815.200214,34.2100284 C815.733407,34.6019411 816,35.1707766 816,35.9165521 C816,36.8449665 815.661998,37.5089251 814.985985,37.9084477 C814.309972,38.3079703 813.524475,38.5077286 812.629471,38.5077286 C811.585935,38.5077286 810.769019,38.2413842 810.178697,37.7086874 C809.588376,37.1797956 809.298932,36.4625681 809.310358,35.5569836 L810.378644,35.5569836 Z M784.282755,42.8656739 L785.625254,42.8656739 L789.864122,49.6575241 L789.864122,42.8656739 L790.943834,42.8656739 L790.943834,51.249899 L789.669888,51.249899 L785.36818,44.4637563 L785.36818,51.249899 L784.282755,51.249899 L784.282755,42.8656739 Z M799.644368,44.0642357 C800.200412,44.8062062 800.478431,45.7555338 800.478431,46.9122468 C800.478431,48.1640843 800.160423,49.2047299 799.5244,50.0342149 C798.777929,51.0082891 797.713462,51.4953188 796.330967,51.4953188 C795.039876,51.4953188 794.024919,51.0691678 793.286065,50.2168529 C792.627191,49.3949779 792.297758,48.3562347 792.297758,47.1005922 C792.297758,45.9667091 792.579585,44.9964545 793.143246,44.1897993 C793.866866,43.1548455 794.937046,42.6373764 796.353818,42.6373764 C797.835334,42.6373764 798.932173,43.1129914 799.644368,44.0642357 Z M798.641778,49.4035431 C799.08928,48.6863049 799.313027,47.8615885 799.313027,46.9293691 C799.313027,45.9438801 799.055004,45.1505542 798.538948,44.5493678 C798.022893,43.9481815 797.317374,43.6475928 796.422371,43.6475928 C795.554027,43.6475928 794.845652,43.9453278 794.297224,44.5408067 C793.748796,45.1362856 793.474587,46.0142709 793.474587,47.1747889 C793.474587,48.1032033 793.70976,48.8860656 794.180112,49.5233993 C794.650465,50.160733 795.413111,50.479395 796.468073,50.479395 C797.469715,50.479395 798.194276,50.1207813 798.641778,49.4035431 Z M802.575014,48.5445738 C802.601673,49.020196 802.714023,49.4063954 802.912066,49.7031836 C803.28911,50.2587102 803.953688,50.5364694 804.90582,50.5364694 C805.332375,50.5364694 805.720838,50.4755907 806.071223,50.3538314 C806.74914,50.1179228 807.088094,49.6955767 807.088094,49.0867804 C807.088094,48.6301831 806.945277,48.3048624 806.659637,48.1108086 C806.370189,47.9205598 805.916981,47.7550457 805.3,47.6142616 L804.163161,47.3574269 C803.420498,47.1900079 802.89493,47.0054693 802.586439,46.8038055 C802.053245,46.4537476 801.786653,45.9305711 801.786653,45.2342603 C801.786653,44.4808748 802.047533,43.8625753 802.569301,43.3793432 C803.091069,42.8961111 803.829912,42.6544987 804.785852,42.6544987 C805.665621,42.6544987 806.413033,42.866623 807.02811,43.290878 C807.643187,43.7151329 807.950721,44.3933599 807.950721,45.3255793 L806.882435,45.3255793 C806.825307,44.876592 806.703436,44.5322467 806.516818,44.2925332 C806.170242,43.8549608 805.581834,43.6361779 804.751575,43.6361779 C804.081275,43.6361779 803.599503,43.7769599 803.306247,44.0585283 C803.01299,44.3400966 802.866364,44.6673197 802.866364,45.0402074 C802.866364,45.451145 803.037745,45.7517337 803.380513,45.9419825 C803.605216,46.0637418 804.113646,46.2159386 804.90582,46.3985775 L806.082648,46.666827 C806.650119,46.7961962 807.088093,46.973125 807.396583,47.1976187 C807.929777,47.5895313 808.19637,48.1583669 808.19637,48.9041424 C808.19637,49.8325568 807.858368,50.4965153 807.182355,50.8960379 C806.506341,51.2955605 805.720845,51.4953188 804.825841,51.4953188 C803.782305,51.4953188 802.965388,51.2289744 802.375067,50.6962776 C801.784745,50.1673858 801.495302,49.4501584 801.506727,48.5445738 L802.575014,48.5445738 Z M810.378644,48.5445738 C810.405304,49.020196 810.517653,49.4063954 810.715697,49.7031836 C811.092741,50.2587102 811.757319,50.5364694 812.70945,50.5364694 C813.136005,50.5364694 813.524469,50.4755907 813.874853,50.3538314 C814.552771,50.1179228 814.891725,49.6955767 814.891725,49.0867804 C814.891725,48.6301831 814.748907,48.3048624 814.463268,48.1108086 C814.17382,47.9205598 813.720612,47.7550457 813.103631,47.6142616 L811.966791,47.3574269 C811.224129,47.1900079 810.69856,47.0054693 810.390069,46.8038055 C809.856876,46.4537476 809.590283,45.9305711 809.590283,45.2342603 C809.590283,44.4808748 809.851163,43.8625753 810.372931,43.3793432 C810.894699,42.8961111 811.633542,42.6544987 812.589482,42.6544987 C813.469252,42.6544987 814.216664,42.866623 814.831741,43.290878 C815.446817,43.7151329 815.754351,44.3933599 815.754351,45.3255793 L814.686065,45.3255793 C814.628937,44.876592 814.507066,44.5322467 814.320449,44.2925332 C813.973873,43.8549608 813.385464,43.6361779 812.555206,43.6361779 C811.884905,43.6361779 811.403134,43.7769599 811.109877,44.0585283 C810.816621,44.3400966 810.669995,44.6673197 810.669995,45.0402074 C810.669995,45.451145 810.841376,45.7517337 811.184143,45.9419825 C811.408846,46.0637418 811.917277,46.2159386 812.70945,46.3985775 L813.886279,46.666827 C814.453749,46.7961962 814.891723,46.973125 815.200214,47.1976187 C815.733407,47.5895313 816,48.1583669 816,48.9041424 C816,49.8325568 815.661998,50.4965153 814.985985,50.8960379 C814.309972,51.2955605 813.524475,51.4953188 812.629471,51.4953188 C811.585935,51.4953188 810.769019,51.2289744 810.178697,50.6962776 C809.588376,50.1673858 809.298932,49.4501584 809.310358,48.5445738 L810.378644,48.5445738 Z M38.2478581,244.359992 L38.2478581,242.122494 L49.5676084,235.057714 L38.2478581,235.057714 L38.2478581,233.258194 L52.2215666,233.258194 L52.2215666,235.381437 L40.9113287,242.550951 L52.2215666,242.550951 L52.2215666,244.359992 L38.2478581,244.359992 Z M38.6473831,220.317312 C39.3766704,218.9272 40.6544894,218.076642 42.4808784,217.765613 L42.4808784,219.641302 C41.4598762,219.869814 40.7163314,220.342699 40.2502217,221.059971 C39.784112,221.777244 39.5510606,222.681755 39.5510606,223.773532 C39.5510606,225.068431 40.0361879,226.158605 41.0064571,227.044087 C41.9767263,227.92957 43.4225959,228.372304 45.3441093,228.372304 C47.005616,228.372304 48.357948,228.007326 49.4011459,227.277359 C50.4443438,226.547391 50.9659349,225.357245 50.9659349,223.706883 C50.9659349,222.443722 50.5997113,221.39798 49.8672532,220.569626 C49.1347951,219.741272 47.9505138,219.317579 46.3143736,219.298537 L46.3143736,223.67832 L44.7448284,223.67832 L44.7448284,217.537102 L52.2215711,217.537102 L52.2215711,218.755825 L50.4237284,219.212845 C51.1276491,219.853947 51.6159472,220.422044 51.8886372,220.917152 C52.3579177,221.74868 52.5925545,222.80553 52.5925545,224.087734 C52.5925545,225.744443 52.0566949,227.169445 50.9849597,228.362783 C49.6405344,229.664029 47.7951482,230.314643 45.4487457,230.314643 C43.1086847,230.314643 41.2474447,229.679898 39.8649697,228.410389 C38.545911,227.204356 37.8863915,225.642884 37.8863915,223.725926 C37.8863915,222.411985 38.1400528,221.275791 38.6473831,220.317312 Z M38.2478581,212.994031 L50.1478645,208.976057 L38.2478581,205.005688 L38.2478581,202.882446 L52.2215666,207.985845 L52.2215666,209.994832 L38.2478581,215.08871 L38.2478581,212.994031 Z M38.2478581,184.81665 L39.9125272,184.81665 L39.9125272,189.529677 L52.2215666,189.529677 L52.2215666,191.452973 L39.9125272,191.452973 L39.9125272,196.166001 L38.2478581,196.166001 L38.2478581,184.81665 Z M38.2478581,182.348293 L38.2478581,175.873831 C38.2478581,174.807444 38.4032256,173.928322 38.7139654,173.23644 C39.3100785,171.922499 40.4103345,171.265538 42.0147666,171.265538 C42.8518615,171.265538 43.5367471,171.438506 44.0694439,171.784447 C44.6021407,172.130388 45.0301942,172.614381 45.3536173,173.23644 C45.5755743,172.690551 45.8672848,172.279554 46.2287576,172.003436 C46.5902305,171.727318 47.1768223,171.573392 47.9885507,171.541655 L49.8624926,171.475006 C50.3951894,171.455963 50.7915352,171.411531 51.051542,171.341708 C51.495456,171.227452 51.780825,171.024334 51.9076576,170.732347 L52.2215666,170.732347 L52.2215666,173.055536 C52.1010757,173.119011 51.9457081,173.169791 51.7554592,173.207876 C51.5652104,173.245962 51.1974015,173.277699 50.6520214,173.303089 L48.3214846,173.417344 C47.4082901,173.461777 46.7963321,173.801365 46.4855923,174.43612 C46.3143683,174.79793 46.2287576,175.366026 46.2287576,176.140427 L46.2287576,180.45356 L52.2215666,180.45356 L52.2215666,182.348293 L38.2478581,182.348293 Z M44.6469276,176.073516 C44.6469276,175.18486 44.4693647,174.48188 44.1142335,173.964555 C43.7591023,173.447231 43.1186074,173.188572 42.1927296,173.188572 C41.197094,173.188572 40.5185499,173.550377 40.1570771,174.273996 C39.9668282,174.661197 39.8717052,175.178514 39.8717052,175.825963 L39.8717052,180.453299 L44.6469276,180.453299 L44.6469276,176.073516 Z M38.2478581,167.555676 L38.2478581,165.641901 L52.2215666,165.641901 L52.2215666,167.555676 L38.2478581,167.555676 Z M38.2478581,161.874868 L38.2478581,151.677591 L39.9600892,151.677591 L39.9600892,160.027742 L44.2026175,160.027742 L44.2026175,152.305994 L45.8197246,152.305994 L45.8197246,160.027742 L50.5568975,160.027742 L50.5568975,151.534772 L52.2215666,151.534772 L52.2215666,161.874868 L38.2478581,161.874868 Z M38.2478581,148.542522 L38.2478581,146.305025 L49.5676084,139.240245 L38.2478581,139.240245 L38.2478581,137.440725 L52.2215666,137.440725 L52.2215666,139.563968 L40.9113287,146.733482 L52.2215666,146.733482 L52.2215666,148.542522 L38.2478581,148.542522 Z M38.2478581,133.954186 L38.2478581,131.716689 L49.5676084,124.651908 L38.2478581,124.651908 L38.2478581,122.852389 L52.2215666,122.852389 L52.2215666,124.975632 L40.9113287,132.145146 L52.2215666,132.145146 L52.2215666,133.954186 L38.2478581,133.954186 Z M38.2478581,118.933512 L38.2478581,117.019737 L52.2215666,117.019737 L52.2215666,118.933512 L38.2478581,118.933512 Z M38.2478581,109.367738 L38.2478581,107.225453 L52.2215666,102.150618 L52.2215666,104.226254 L48.0361127,105.644923 L48.0361127,111.176779 L52.2215666,112.69066 L52.2215666,114.632999 L38.2478581,109.367738 Z M46.4934013,106.254235 L40.3198568,108.377478 L46.4934013,110.634018 L46.4934013,106.254235 Z M38.2478581,99.9193691 L38.2478581,98.0246369 L50.5568975,98.0246369 L50.5568975,90.9408143 L52.2215666,90.9408143 L52.2215666,99.9193691 L38.2478581,99.9193691 Z M423.23739,33.3799134 L425.474888,33.3799134 L432.539668,44.6996637 L432.539668,33.3799134 L434.339188,33.3799134 L434.339188,47.353622 L432.215945,47.353622 L425.046431,36.0433841 L425.046431,47.353622 L423.23739,47.353622 L423.23739,33.3799134 Z M409.891304,29 L411.191274,29 L411.191274,51.7353993 L409.891304,51.7353993 L409.891304,29 Z M449.360065,35.3775164 C450.286807,36.614134 450.75017,38.1963465 450.75017,40.1242016 C450.75017,42.2105974 450.220159,43.9450068 449.160119,45.3274818 C447.916,46.9509387 446.141889,47.7626549 443.837731,47.7626549 C441.685913,47.7626549 439.994319,47.0524032 438.762895,45.6318784 C437.66477,44.2620867 437.115716,42.530848 437.115716,40.4381106 C437.115716,38.5483053 437.585427,36.9312143 438.524864,35.5867891 C439.730897,33.8618661 441.51453,32.9994176 443.875816,32.9994176 C446.34501,32.9994176 448.173075,33.7921093 449.360065,35.3775164 Z M447.689083,44.2763621 C448.434919,43.0809651 448.807832,41.7064378 448.807832,40.1527388 C448.807832,38.510257 448.377792,37.1880473 447.5177,36.18607 C446.657608,35.1840927 445.481743,34.6831115 443.990071,34.6831115 C442.542831,34.6831115 441.362206,35.1793365 440.44816,36.1718014 C439.534113,37.1642663 439.077097,38.6275751 439.077097,40.5617718 C439.077097,42.1091291 439.469052,43.4138996 440.252974,44.4761224 C441.036895,45.5383452 442.307972,46.0694486 444.066241,46.0694486 C445.735645,46.0694486 446.943247,45.4717591 447.689083,44.2763621 Z M454.764464,42.8447466 C454.808896,43.6374502 454.996146,44.2811158 455.326218,44.7757629 C455.954625,45.7016406 457.062255,46.1645726 458.64914,46.1645726 C459.360065,46.1645726 460.007505,46.063108 460.591479,45.8601759 C461.721342,45.4669949 462.286264,44.7630847 462.286264,43.7484242 C462.286264,42.9874288 462.048235,42.4452276 461.572169,42.1218046 C461.089756,41.8047232 460.33441,41.5288665 459.306108,41.2942262 L457.411376,40.8661684 C456.173605,40.5871368 455.297657,40.2795724 454.783506,39.9434661 C453.89485,39.3600363 453.450529,38.4880754 453.450529,37.3275574 C453.450529,36.071915 453.885329,35.0414158 454.754942,34.236029 C455.624556,33.4306421 456.855961,33.0279548 458.449194,33.0279548 C459.915476,33.0279548 461.161163,33.3814953 462.186291,34.0885868 C463.211419,34.7956784 463.723976,35.9260567 463.723976,37.4797557 L461.943499,37.4797557 C461.848286,36.7314436 461.645167,36.1575348 461.334138,35.7580122 C460.756511,35.0287249 459.775831,34.6640868 458.392066,34.6640868 C457.274899,34.6640868 456.471947,34.8987235 455.983186,35.368004 C455.494425,35.8372845 455.250048,36.3826564 455.250048,37.004136 C455.250048,37.6890319 455.535683,38.190013 456.106962,38.5070944 C456.481467,38.7100265 457.328851,38.9636879 458.64914,39.268086 L460.610521,39.7151686 C461.556305,39.930784 462.286262,40.2256653 462.800413,40.5998214 C463.689069,41.2530091 464.13339,42.2010683 464.13339,43.4440275 C464.13339,44.9913849 463.570054,46.0979825 462.443365,46.7638535 C461.316676,47.4297244 460.007515,47.7626549 458.515843,47.7626549 C456.776616,47.7626549 455.415088,47.3187476 454.431219,46.4309196 C453.44735,45.5494333 452.964944,44.3540542 452.983987,42.8447466 L454.764464,42.8447466 Z M468.290502,42.8447466 C468.334935,43.6374502 468.522185,44.2811158 468.852257,44.7757629 C469.480664,45.7016406 470.588294,46.1645726 472.175179,46.1645726 C472.886104,46.1645726 473.533544,46.063108 474.117518,45.8601759 C475.24738,45.4669949 475.812303,44.7630847 475.812303,43.7484242 C475.812303,42.9874288 475.574274,42.4452276 475.098208,42.1218046 C474.615795,41.8047232 473.860449,41.5288665 472.832147,41.2942262 L470.937415,40.8661684 C469.699644,40.5871368 468.823696,40.2795724 468.309545,39.9434661 C467.420889,39.3600363 466.976568,38.4880754 466.976568,37.3275574 C466.976568,36.071915 467.411368,35.0414158 468.280981,34.236029 C469.150594,33.4306421 470.381999,33.0279548 471.975233,33.0279548 C473.441515,33.0279548 474.687202,33.3814953 475.71233,34.0885868 C476.737458,34.7956784 477.250015,35.9260567 477.250015,37.4797557 L475.469538,37.4797557 C475.374325,36.7314436 475.171206,36.1575348 474.860177,35.7580122 C474.28255,35.0287249 473.301869,34.6640868 471.918105,34.6640868 C470.800937,34.6640868 469.997985,34.8987235 469.509225,35.368004 C469.020464,35.8372845 468.776087,36.3826564 468.776087,37.004136 C468.776087,37.6890319 469.061722,38.190013 469.633001,38.5070944 C470.007506,38.7100265 470.85489,38.9636879 472.175179,39.268086 L474.13656,39.7151686 C475.082344,39.930784 475.812301,40.2256653 476.326452,40.5998214 C477.215108,41.2530091 477.659429,42.2010683 477.659429,43.4440275 C477.659429,44.9913849 477.096093,46.0979825 475.969404,46.7638535 C474.842715,47.4297244 473.533554,47.7626549 472.041882,47.7626549 C470.302655,47.7626549 468.941127,47.3187476 467.957258,46.4309196 C466.973389,45.5494333 466.490983,44.3540542 466.510025,42.8447466 L468.290502,42.8447466 Z M486.516366,33.3799134 L488.753863,33.3799134 L495.818643,44.6996637 L495.818643,33.3799134 L497.618163,33.3799134 L497.618163,47.353622 L495.49492,47.353622 L488.325406,36.0433841 L488.325406,47.353622 L486.516366,47.353622 L486.516366,33.3799134 Z M512.639041,35.3775164 C513.565782,36.614134 514.029146,38.1963465 514.029146,40.1242016 C514.029146,42.2105974 513.499134,43.9450068 512.439094,45.3274818 C511.194976,46.9509387 509.420864,47.7626549 507.116706,47.7626549 C504.964889,47.7626549 503.273294,47.0524032 502.04187,45.6318784 C500.943745,44.2620867 500.394691,42.530848 500.394691,40.4381106 C500.394691,38.5483053 500.864402,36.9312143 501.803839,35.5867891 C503.009872,33.8618661 504.793505,32.9994176 507.154791,32.9994176 C509.623985,32.9994176 511.45205,33.7921093 512.639041,35.3775164 Z M510.968058,44.2763621 C511.713895,43.0809651 512.086807,41.7064378 512.086807,40.1527388 C512.086807,38.510257 511.656768,37.1880473 510.796675,36.18607 C509.936583,35.1840927 508.760719,34.6831115 507.269046,34.6831115 C505.821806,34.6831115 504.641181,35.1793365 503.727135,36.1718014 C502.813088,37.1642663 502.356072,38.6275751 502.356072,40.5617718 C502.356072,42.1091291 502.748027,43.4138996 503.531949,44.4761224 C504.31587,45.5383452 505.586947,46.0694486 507.345216,46.0694486 C509.01462,46.0694486 510.222222,45.4717591 510.968058,44.2763621 Z M518.043439,42.8447466 C518.087871,43.6374502 518.275121,44.2811158 518.605193,44.7757629 C519.2336,45.7016406 520.34123,46.1645726 521.928116,46.1645726 C522.63904,46.1645726 523.28648,46.063108 523.870454,45.8601759 C525.000317,45.4669949 525.56524,44.7630847 525.56524,43.7484242 C525.56524,42.9874288 525.32721,42.4452276 524.851145,42.1218046 C524.368731,41.8047232 523.613385,41.5288665 522.585083,41.2942262 L520.690351,40.8661684 C519.45258,40.5871368 518.576632,40.2795724 518.062481,39.9434661 C517.173825,39.3600363 516.729504,38.4880754 516.729504,37.3275574 C516.729504,36.071915 517.164304,35.0414158 518.033917,34.236029 C518.903531,33.4306421 520.134936,33.0279548 521.728169,33.0279548 C523.194451,33.0279548 524.440138,33.3814953 525.465266,34.0885868 C526.490395,34.7956784 527.002951,35.9260567 527.002951,37.4797557 L525.222474,37.4797557 C525.127261,36.7314436 524.924143,36.1575348 524.613113,35.7580122 C524.035486,35.0287249 523.054806,34.6640868 521.671041,34.6640868 C520.553874,34.6640868 519.750922,34.8987235 519.262161,35.368004 C518.7734,35.8372845 518.529023,36.3826564 518.529023,37.004136 C518.529023,37.6890319 518.814658,38.190013 519.385937,38.5070944 C519.760442,38.7100265 520.607827,38.9636879 521.928116,39.268086 L523.889497,39.7151686 C524.835281,39.930784 525.565237,40.2256653 526.079388,40.5998214 C526.968044,41.2530091 527.412365,42.2010683 527.412365,43.4440275 C527.412365,44.9913849 526.849029,46.0979825 525.722341,46.7638535 C524.595652,47.4297244 523.286491,47.7626549 521.794818,47.7626549 C520.055591,47.7626549 518.694064,47.3187476 517.710194,46.4309196 C516.726325,45.5494333 516.243919,44.3540542 516.262962,42.8447466 L518.043439,42.8447466 Z M531.569478,42.8447466 C531.61391,43.6374502 531.80116,44.2811158 532.131232,44.7757629 C532.759639,45.7016406 533.867269,46.1645726 535.454154,46.1645726 C536.165079,46.1645726 536.812519,46.063108 537.396493,45.8601759 C538.526356,45.4669949 539.091278,44.7630847 539.091278,43.7484242 C539.091278,42.9874288 538.853249,42.4452276 538.377183,42.1218046 C537.89477,41.8047232 537.139424,41.5288665 536.111122,41.2942262 L534.21639,40.8661684 C532.978619,40.5871368 532.102671,40.2795724 531.58852,39.9434661 C530.699864,39.3600363 530.255543,38.4880754 530.255543,37.3275574 C530.255543,36.071915 530.690343,35.0414158 531.559956,34.236029 C532.42957,33.4306421 533.660975,33.0279548 535.254208,33.0279548 C536.72049,33.0279548 537.966177,33.3814953 538.991305,34.0885868 C540.016433,34.7956784 540.52899,35.9260567 540.52899,37.4797557 L538.748513,37.4797557 C538.6533,36.7314436 538.450181,36.1575348 538.139152,35.7580122 C537.561525,35.0287249 536.580845,34.6640868 535.19708,34.6640868 C534.079913,34.6640868 533.276961,34.8987235 532.7882,35.368004 C532.299439,35.8372845 532.055062,36.3826564 532.055062,37.004136 C532.055062,37.6890319 532.340697,38.190013 532.911976,38.5070944 C533.286481,38.7100265 534.133866,38.9636879 535.454154,39.268086 L537.415535,39.7151686 C538.361319,39.930784 539.091276,40.2256653 539.605427,40.5998214 C540.494083,41.2530091 540.938404,42.2010683 540.938404,43.4440275 C540.938404,44.9913849 540.375068,46.0979825 539.248379,46.7638535 C538.12169,47.4297244 536.812529,47.7626549 535.320857,47.7626549 C533.58163,47.7626549 532.220102,47.3187476 531.236233,46.4309196 C530.252364,45.5494333 529.769958,44.3540542 529.789001,42.8447466 L531.569478,42.8447466 Z M391.86818,29.8787178 C391.916844,29.8009272 391.999573,29.7814798 392.116368,29.8203751 C392.904732,30.0926424 393.610357,30.505899 394.233263,31.0601573 C394.320859,31.1379479 394.335458,31.2254611 394.27706,31.3226994 L392.846331,33.5834787 C392.787934,33.6709931 392.688173,33.6564076 392.547046,33.5397216 C392.405919,33.4230357 391.707594,32.9854699 390.45205,32.2270111 C390.374187,32.1783919 390.359588,32.1200498 390.408252,32.051983 L391.86818,29.8787178 Z M383.736383,37.7695667 C382.052592,37.7695667 380.587812,38.2703365 379.342001,39.271891 L377.414897,40.9784147 C378.787235,41.0270338 380.368808,40.8738858 382.159661,40.518966 C383.950515,40.1640462 385.220639,39.64626 385.970072,38.9655919 C385.308235,38.1585139 384.56368,37.7598429 383.736383,37.7695667 Z M342.084649,29.8787178 C342.133313,29.8009272 342.216041,29.7814798 342.332836,29.8203751 C343.121201,30.0926424 343.826826,30.505899 344.449731,31.0601573 C344.537327,31.1379479 344.551926,31.2254611 344.493529,31.3226994 L343.0628,33.5834787 C343.004403,33.6709931 342.904642,33.6564076 342.763515,33.5397216 C342.622388,33.4230357 341.924063,32.9854699 340.668519,32.2270111 C340.590656,32.1783919 340.576056,32.1200498 340.624721,32.051983 L342.084649,29.8787178 Z M333.952852,37.7695667 C332.26906,37.7695667 330.804281,38.2703365 329.55847,39.271891 L327.631365,40.9784147 C329.003704,41.0270338 330.585276,40.8738858 332.37613,40.518966 C334.166983,40.1640462 335.437108,39.64626 336.186541,38.9655919 C335.524704,38.1585139 334.780148,37.7598429 333.952852,37.7695667 Z M631.882627,554.182282 L634.120124,554.182282 L641.184904,565.502033 L641.184904,554.182282 L642.984424,554.182282 L642.984424,568.155991 L640.861181,568.155991 L633.691667,556.845753 L633.691667,568.155991 L631.882627,568.155991 L631.882627,554.182282 Z M658.005302,556.179885 C658.932043,557.416503 659.395407,558.998716 659.395407,560.926571 C659.395407,563.012966 658.865395,564.747376 657.805355,566.129851 C656.561237,567.753308 654.787125,568.565024 652.482967,568.565024 C650.33115,568.565024 648.639555,567.854772 647.408131,566.434248 C646.310007,565.064456 645.760952,563.333217 645.760952,561.24048 C645.760952,559.350674 646.230663,557.733583 647.1701,556.389158 C648.376133,554.664235 650.159766,553.801787 652.521052,553.801787 C654.990246,553.801787 656.818311,554.594478 658.005302,556.179885 Z M656.334319,565.078731 C657.080156,563.883334 657.453068,562.508807 657.453068,560.955108 C657.453068,559.312626 657.023029,557.990416 656.162936,556.988439 C655.302844,555.986462 654.12698,555.485481 652.635307,555.485481 C651.188067,555.485481 650.007442,555.981706 649.093396,556.97417 C648.17935,557.966635 647.722333,559.429944 647.722333,561.364141 C647.722333,562.911498 648.114288,564.216269 648.89821,565.278491 C649.682131,566.340714 650.953208,566.871818 652.711477,566.871818 C654.380881,566.871818 655.588483,566.274128 656.334319,565.078731 Z M663.4097,563.647116 C663.454133,564.439819 663.641382,565.083485 663.971454,565.578132 C664.599861,566.50401 665.707491,566.966942 667.294377,566.966942 C668.005301,566.966942 668.652741,566.865477 669.236715,566.662545 C670.366578,566.269364 670.931501,565.565454 670.931501,564.550793 C670.931501,563.789798 670.693471,563.247597 670.217406,562.924174 C669.734992,562.607092 668.979646,562.331236 667.951344,562.096595 L666.056612,561.668538 C664.818841,561.389506 663.942893,561.081941 663.428742,560.745835 C662.540086,560.162405 662.095765,559.290445 662.095765,558.129926 C662.095765,556.874284 662.530565,555.843785 663.400178,555.038398 C664.269792,554.233011 665.501197,553.830324 667.09443,553.830324 C668.560713,553.830324 669.806399,554.183864 670.831527,554.890956 C671.856656,555.598048 672.369212,556.728426 672.369212,558.282125 L670.588735,558.282125 C670.493522,557.533813 670.290404,556.959904 669.979374,556.560381 C669.401748,555.831094 668.421067,555.466456 667.037302,555.466456 C665.920135,555.466456 665.117183,555.701093 664.628422,556.170373 C664.139661,556.639654 663.895284,557.185025 663.895284,557.806505 C663.895284,558.491401 664.18092,558.992382 664.752198,559.309463 C665.126703,559.512396 665.974088,559.766057 667.294377,560.070455 L669.255758,560.517538 C670.201542,560.733153 670.931498,561.028034 671.445649,561.40219 C672.334305,562.055378 672.778626,563.003437 672.778626,564.246397 C672.778626,565.793754 672.21529,566.900352 671.088602,567.566223 C669.961913,568.232094 668.652752,568.565024 667.161079,568.565024 C665.421852,568.565024 664.060325,568.121117 663.076455,567.233289 C662.092586,566.351802 661.61018,565.156423 661.629223,563.647116 L663.4097,563.647116 Z M676.935739,563.647116 C676.980171,564.439819 677.167421,565.083485 677.497493,565.578132 C678.1259,566.50401 679.23353,566.966942 680.820416,566.966942 C681.53134,566.966942 682.17878,566.865477 682.762754,566.662545 C683.892617,566.269364 684.457539,565.565454 684.457539,564.550793 C684.457539,563.789798 684.21951,563.247597 683.743444,562.924174 C683.261031,562.607092 682.505685,562.331236 681.477383,562.096595 L679.582651,561.668538 C678.34488,561.389506 677.468932,561.081941 676.954781,560.745835 C676.066125,560.162405 675.621804,559.290445 675.621804,558.129926 C675.621804,556.874284 676.056604,555.843785 676.926217,555.038398 C677.795831,554.233011 679.027236,553.830324 680.620469,553.830324 C682.086751,553.830324 683.332438,554.183864 684.357566,554.890956 C685.382694,555.598048 685.895251,556.728426 685.895251,558.282125 L684.114774,558.282125 C684.019561,557.533813 683.816442,556.959904 683.505413,556.560381 C682.927786,555.831094 681.947106,555.466456 680.563341,555.466456 C679.446174,555.466456 678.643222,555.701093 678.154461,556.170373 C677.6657,556.639654 677.421323,557.185025 677.421323,557.806505 C677.421323,558.491401 677.706958,558.992382 678.278237,559.309463 C678.652742,559.512396 679.500127,559.766057 680.820416,560.070455 L682.781797,560.517538 C683.72758,560.733153 684.457537,561.028034 684.971688,561.40219 C685.860344,562.055378 686.304665,563.003437 686.304665,564.246397 C686.304665,565.793754 685.741329,566.900352 684.61464,567.566223 C683.487952,568.232094 682.17879,568.565024 680.687118,568.565024 C678.947891,568.565024 677.586363,568.121117 676.602494,567.233289 C675.618625,566.351802 675.136219,565.156423 675.155262,563.647116 L676.935739,563.647116 Z M695.161602,554.182282 L697.399099,554.182282 L704.46388,565.502033 L704.46388,554.182282 L706.263399,554.182282 L706.263399,568.155991 L704.140157,568.155991 L696.970642,556.845753 L696.970642,568.155991 L695.161602,568.155991 L695.161602,554.182282 Z M721.284277,556.179885 C722.211018,557.416503 722.674382,558.998716 722.674382,560.926571 C722.674382,563.012966 722.14437,564.747376 721.08433,566.129851 C719.840212,567.753308 718.0661,568.565024 715.761942,568.565024 C713.610125,568.565024 711.91853,567.854772 710.687107,566.434248 C709.588982,565.064456 709.039927,563.333217 709.039927,561.24048 C709.039927,559.350674 709.509639,557.733583 710.449075,556.389158 C711.655108,554.664235 713.438741,553.801787 715.800027,553.801787 C718.269221,553.801787 720.097286,554.594478 721.284277,556.179885 Z M719.613294,565.078731 C720.359131,563.883334 720.732043,562.508807 720.732043,560.955108 C720.732043,559.312626 720.302004,557.990416 719.441912,556.988439 C718.58182,555.986462 717.405955,555.485481 715.914282,555.485481 C714.467042,555.485481 713.286417,555.981706 712.372371,556.97417 C711.458325,557.966635 711.001308,559.429944 711.001308,561.364141 C711.001308,562.911498 711.393263,564.216269 712.177185,565.278491 C712.961107,566.340714 714.232183,566.871818 715.990452,566.871818 C717.659856,566.871818 718.867458,566.274128 719.613294,565.078731 Z M726.688675,563.647116 C726.733108,564.439819 726.920357,565.083485 727.25043,565.578132 C727.878836,566.50401 728.986466,566.966942 730.573352,566.966942 C731.284277,566.966942 731.931716,566.865477 732.51569,566.662545 C733.645553,566.269364 734.210476,565.565454 734.210476,564.550793 C734.210476,563.789798 733.972447,563.247597 733.496381,562.924174 C733.013968,562.607092 732.258621,562.331236 731.230319,562.096595 L729.335587,561.668538 C728.097816,561.389506 727.221868,561.081941 726.707717,560.745835 C725.819061,560.162405 725.37474,559.290445 725.37474,558.129926 C725.37474,556.874284 725.80954,555.843785 726.679154,555.038398 C727.548767,554.233011 728.780172,553.830324 730.373405,553.830324 C731.839688,553.830324 733.085374,554.183864 734.110503,554.890956 C735.135631,555.598048 735.648187,556.728426 735.648187,558.282125 L733.86771,558.282125 C733.772497,557.533813 733.569379,556.959904 733.258349,556.560381 C732.680723,555.831094 731.700042,555.466456 730.316278,555.466456 C729.19911,555.466456 728.396158,555.701093 727.907397,556.170373 C727.418636,556.639654 727.17426,557.185025 727.17426,557.806505 C727.17426,558.491401 727.459895,558.992382 728.031174,559.309463 C728.405679,559.512396 729.253063,559.766057 730.573352,560.070455 L732.534733,560.517538 C733.480517,560.733153 734.210473,561.028034 734.724624,561.40219 C735.61328,562.055378 736.057602,563.003437 736.057602,564.246397 C736.057602,565.793754 735.494266,566.900352 734.367577,567.566223 C733.240888,568.232094 731.931727,568.565024 730.440054,568.565024 C728.700827,568.565024 727.3393,568.121117 726.355431,567.233289 C725.371561,566.351802 724.889155,565.156423 724.908198,563.647116 L726.688675,563.647116 Z M740.214714,563.647116 C740.259147,564.439819 740.446396,565.083485 740.776469,565.578132 C741.404875,566.50401 742.512505,566.966942 744.099391,566.966942 C744.810316,566.966942 745.457755,566.865477 746.041729,566.662545 C747.171592,566.269364 747.736515,565.565454 747.736515,564.550793 C747.736515,563.789798 747.498485,563.247597 747.02242,562.924174 C746.540006,562.607092 745.78466,562.331236 744.756358,562.096595 L742.861626,561.668538 C741.623855,561.389506 740.747907,561.081941 740.233756,560.745835 C739.3451,560.162405 738.900779,559.290445 738.900779,558.129926 C738.900779,556.874284 739.335579,555.843785 740.205192,555.038398 C741.074806,554.233011 742.306211,553.830324 743.899444,553.830324 C745.365727,553.830324 746.611413,554.183864 747.636541,554.890956 C748.66167,555.598048 749.174226,556.728426 749.174226,558.282125 L747.393749,558.282125 C747.298536,557.533813 747.095418,556.959904 746.784388,556.560381 C746.206762,555.831094 745.226081,555.466456 743.842316,555.466456 C742.725149,555.466456 741.922197,555.701093 741.433436,556.170373 C740.944675,556.639654 740.700298,557.185025 740.700298,557.806505 C740.700298,558.491401 740.985934,558.992382 741.557212,559.309463 C741.931717,559.512396 742.779102,559.766057 744.099391,560.070455 L746.060772,560.517538 C747.006556,560.733153 747.736512,561.028034 748.250663,561.40219 C749.139319,562.055378 749.58364,563.003437 749.58364,564.246397 C749.58364,565.793754 749.020304,566.900352 747.893616,567.566223 C746.766927,568.232094 745.457766,568.565024 743.966093,568.565024 C742.226866,568.565024 740.865339,568.121117 739.881469,567.233289 C738.8976,566.351802 738.415194,565.156423 738.434237,563.647116 L740.214714,563.647116 Z M615.188274,551.264601 L616.488244,551.264601 L616.488244,574 L615.188274,574 L615.188274,551.264601 Z M591.413624,550.681087 C591.462288,550.603296 591.545017,550.583849 591.661812,550.622744 C592.450176,550.895011 593.155801,551.308268 593.778707,551.862526 C593.866303,551.940317 593.880902,552.02783 593.822504,552.125068 L592.391775,554.385848 C592.333378,554.473362 592.233617,554.458777 592.09249,554.342091 C591.951363,554.225405 591.253038,553.787839 589.997494,553.02938 C589.919631,552.980761 589.905032,552.922419 589.953696,552.854352 L591.413624,550.681087 Z M583.281827,558.571936 C581.598035,558.571936 580.133256,559.072706 578.887445,560.07426 L576.960341,561.780784 C578.332679,561.829403 579.914252,561.676255 581.705105,561.321335 C583.495959,560.966415 584.766083,560.448629 585.515516,559.767961 C584.853679,558.960883 584.109124,558.562212 583.281827,558.571936 Z M541.630093,550.681087 C541.678757,550.603296 541.761485,550.583849 541.87828,550.622744 C542.666645,550.895011 543.37227,551.308268 543.995175,551.862526 C544.082771,551.940317 544.09737,552.02783 544.038973,552.125068 L542.608244,554.385848 C542.549847,554.473362 542.450086,554.458777 542.308959,554.342091 C542.167832,554.225405 541.469507,553.787839 540.213963,553.02938 C540.1361,552.980761 540.1215,552.922419 540.170165,552.854352 L541.630093,550.681087 Z M533.498296,558.571936 C531.814504,558.571936 530.349725,559.072706 529.103914,560.07426 L527.176809,561.780784 C528.549148,561.829403 530.13072,561.676255 531.921574,561.321335 C533.712427,560.966415 534.982552,560.448629 535.731985,559.767961 C535.070148,558.960883 534.325592,558.562212 533.498296,558.571936 Z"/>
    </g>
  </g>
</svg>
