<svg xmlns="http://www.w3.org/2000/svg" width="842" height="602" viewBox="0 0 842 602">
  <title>
    frame2-text
  </title>
  <g id="Frame" fill="none" fill-rule="evenodd">
    <g id="frame2-text" fill="#FFF">
      <g id="Group-2" transform="translate(29 33)">
        <path id="Combined-Shape" d="M7.3303371,373.650841 L7.3303371,371.414297 L18.6666756,364.352529 L7.3303371,364.352529 L7.3303371,362.553776 L21.324523,362.553776 L21.324523,364.676114 L9.99771086,371.842572 L21.324523,371.842572 L21.324523,373.650841 L7.3303371,373.650841 Z M9.33086742,347.539302 C10.5692971,346.612955 12.1538283,346.149789 14.0845085,346.149789 C16.1739617,346.149789 17.9109128,346.679575 19.2954137,347.739163 C20.9212496,348.982751 21.7341554,350.756107 21.7341554,353.059283 C21.7341554,355.210182 21.0228628,356.901056 19.6002564,358.131955 C18.2284573,359.229611 16.4946817,359.778432 14.3988776,359.778432 C12.5063029,359.778432 10.8868422,359.308921 9.54044678,358.369885 C7.81299609,357.164366 6.9492837,355.381493 6.9492837,353.021214 C6.9492837,350.553072 7.743137,348.725786 9.33086742,347.539302 Z M18.2427537,349.209572 C17.0456049,348.464053 15.6690633,348.0913 14.1130875,348.0913 C12.4681988,348.0913 11.1440515,348.521156 10.1406059,349.380882 C9.13716026,350.240607 8.63544497,351.41597 8.63544497,352.907007 C8.63544497,354.35363 9.13239714,355.533752 10.1263164,356.447409 C11.1202356,357.361065 12.5856888,357.817887 14.5227199,357.817887 C16.0723448,357.817887 17.3790273,357.426099 18.4428067,356.642511 C19.5065861,355.858924 20.0384678,354.588389 20.0384678,352.83087 C20.0384678,351.162177 19.4399024,349.95509 18.2427537,349.209572 Z M16.8090403,342.137207 C17.6029055,342.092793 18.2475144,341.905624 18.7428862,341.575692 C19.6701208,340.947553 20.1337311,339.840396 20.1337311,338.254186 C20.1337311,337.543565 20.0321179,336.896401 19.8288884,336.312676 C19.4351313,335.183295 18.7301896,334.618613 17.7140421,334.618613 C16.9519315,334.618613 16.4089358,334.856541 16.0850388,335.332403 C15.7674927,335.814611 15.4912318,336.569635 15.2562477,337.597499 L14.8275626,339.491423 C14.5481221,340.728667 14.240107,341.604241 13.9035081,342.118173 C13.3192234,343.00645 12.4459847,343.450582 11.2837661,343.450582 C10.0262836,343.450582 8.99427429,343.015967 8.18770724,342.146725 C7.38114018,341.277482 6.97786271,340.046602 6.97786271,338.454048 C6.97786271,336.98839 7.33192128,335.743235 8.04004904,334.718543 C8.74817681,333.693852 9.88021161,333.181514 11.4361874,333.181514 L11.4361874,334.961232 C10.6867787,335.056405 10.1120289,335.259437 9.71192081,335.570334 C8.98156482,336.147714 8.6163923,337.127976 8.6163923,338.511151 C8.6163923,339.627842 8.85137288,340.430452 9.32134108,340.919005 C9.79130928,341.407557 10.3374804,341.65183 10.9598707,341.65183 C11.6457702,341.65183 12.1474855,341.366316 12.4650316,340.795281 C12.6682611,340.420936 12.9222941,339.573912 13.2271384,338.254186 L13.6748761,336.293641 C13.8908074,335.348261 14.1861209,334.618615 14.5608253,334.104683 C15.2149702,333.216406 16.1644187,332.772274 17.4091994,332.772274 C18.9588243,332.772274 20.0670435,333.33537 20.7338902,334.461579 C21.400737,335.587787 21.7341554,336.89639 21.7341554,338.387427 C21.7341554,340.125913 21.2895975,341.48686 20.4004685,342.47031 C19.5176904,343.453759 18.3205596,343.93596 16.8090403,343.916925 L16.8090403,342.137207 Z M16.8090403,328.616934 C17.6029055,328.57252 18.2475144,328.38535 18.7428862,328.055419 C19.6701208,327.42728 20.1337311,326.320123 20.1337311,324.733913 C20.1337311,324.023291 20.0321179,323.376128 19.8288884,322.792403 C19.4351313,321.663022 18.7301896,321.09834 17.7140421,321.09834 C16.9519315,321.09834 16.4089358,321.336267 16.0850388,321.81213 C15.7674927,322.294338 15.4912318,323.049362 15.2562477,324.077226 L14.8275626,325.97115 C14.5481221,327.208394 14.240107,328.083968 13.9035081,328.5979 C13.3192234,329.486177 12.4459847,329.930309 11.2837661,329.930309 C10.0262836,329.930309 8.99427429,329.495694 8.18770724,328.626451 C7.38114018,327.757209 6.97786271,326.526329 6.97786271,324.933775 C6.97786271,323.468117 7.33192128,322.222962 8.04004904,321.19827 C8.74817681,320.173579 9.88021161,319.661241 11.4361874,319.661241 L11.4361874,321.440959 C10.6867787,321.536132 10.1120289,321.739163 9.71192081,322.05006 C8.98156482,322.627441 8.6163923,323.607703 8.6163923,324.990878 C8.6163923,326.107569 8.85137288,326.910179 9.32134108,327.398732 C9.79130928,327.887284 10.3374804,328.131557 10.9598707,328.131557 C11.6457702,328.131557 12.1474855,327.846043 12.4650316,327.275008 C12.6682611,326.900662 12.9222941,326.053639 13.2271384,324.733913 L13.6748761,322.773368 C13.8908074,321.827988 14.1861209,321.098342 14.5608253,320.58441 C15.2149702,319.696133 16.1644187,319.252001 17.4091994,319.252001 C18.9588243,319.252001 20.0670435,319.815097 20.7338902,320.941306 C21.400737,322.067514 21.7341554,323.376117 21.7341554,324.867154 C21.7341554,326.60564 21.2895975,327.966587 20.4004685,328.950037 C19.5176904,329.933486 18.3205596,330.415687 16.8090403,330.396652 L16.8090403,328.616934 Z M7.3303371,310.39884 L7.3303371,308.162296 L18.6666756,301.100528 L7.3303371,301.100528 L7.3303371,299.301775 L21.324523,299.301775 L21.324523,301.424113 L9.99771086,308.590571 L21.324523,308.590571 L21.324523,310.39884 L7.3303371,310.39884 Z M9.33086742,284.2873 C10.5692971,283.360954 12.1538283,282.897788 14.0845085,282.897788 C16.1739617,282.897788 17.9109128,283.427574 19.2954137,284.487162 C20.9212496,285.73075 21.7341554,287.504105 21.7341554,289.807281 C21.7341554,291.958181 21.0228628,293.649055 19.6002564,294.879953 C18.2284573,295.97761 16.4946817,296.52643 14.3988776,296.52643 C12.5063029,296.52643 10.8868422,296.056919 9.54044678,295.117884 C7.81299609,293.912364 6.9492837,292.129492 6.9492837,289.769212 C6.9492837,287.301071 7.743137,285.473785 9.33086742,284.2873 Z M18.2427537,285.957571 C17.0456049,285.212052 15.6690633,284.839299 14.1130875,284.839299 C12.4681988,284.839299 11.1440515,285.269155 10.1406059,286.12888 C9.13716026,286.988606 8.63544497,288.163969 8.63544497,289.655006 C8.63544497,291.101629 9.13239714,292.281751 10.1263164,293.195407 C11.1202356,294.109064 12.5856888,294.565885 14.5227199,294.565885 C16.0723448,294.565885 17.3790273,294.174098 18.4428067,293.39051 C19.5065861,292.606923 20.0384678,291.336388 20.0384678,289.578868 C20.0384678,287.910176 19.4399024,286.703089 18.2427537,285.957571 Z M16.8090403,278.885206 C17.6029055,278.840792 18.2475144,278.653622 18.7428862,278.323691 C19.6701208,277.695552 20.1337311,276.588394 20.1337311,275.002185 C20.1337311,274.291563 20.0321179,273.6444 19.8288884,273.060675 C19.4351313,271.931294 18.7301896,271.366612 17.7140421,271.366612 C16.9519315,271.366612 16.4089358,271.604539 16.0850388,272.080402 C15.7674927,272.56261 15.4912318,273.317634 15.2562477,274.345498 L14.8275626,276.239422 C14.5481221,277.476665 14.240107,278.35224 13.9035081,278.866172 C13.3192234,279.754449 12.4459847,280.198581 11.2837661,280.198581 C10.0262836,280.198581 8.99427429,279.763966 8.18770724,278.894723 C7.38114018,278.025481 6.97786271,276.794601 6.97786271,275.202046 C6.97786271,273.736389 7.33192128,272.491233 8.04004904,271.466542 C8.74817681,270.441851 9.88021161,269.929513 11.4361874,269.929513 L11.4361874,271.709231 C10.6867787,271.804404 10.1120289,272.007435 9.71192081,272.318332 C8.98156482,272.895713 8.6163923,273.875975 8.6163923,275.25915 C8.6163923,276.375841 8.85137288,277.178451 9.32134108,277.667003 C9.79130928,278.155556 10.3374804,278.399828 10.9598707,278.399828 C11.6457702,278.399828 12.1474855,278.114315 12.4650316,277.54328 C12.6682611,277.168934 12.9222941,276.321911 13.2271384,275.002185 L13.6748761,273.04164 C13.8908074,272.096259 14.1861209,271.366614 14.5608253,270.852682 C15.2149702,269.964405 16.1644187,269.520273 17.4091994,269.520273 C18.9588243,269.520273 20.0670435,270.083369 20.7338902,271.209578 C21.400737,272.335786 21.7341554,273.644389 21.7341554,275.135426 C21.7341554,276.873911 21.2895975,278.234859 20.4004685,279.218308 C19.5176904,280.201758 18.3205596,280.683959 16.8090403,280.664924 L16.8090403,278.885206 Z M766.42476,81.4045277 C766.424286,81.4008257 766.423887,81.3970959 766.423565,81.3933382 C766.258018,79.7589081 766.827687,77.7061726 768.132589,75.2350699 C767.655423,73.9800611 767.358416,72.5499562 767.241559,70.9447124 C767.08575,68.619541 767.236688,66.4987052 767.694378,64.5821414 C764.276312,64.1443476 762.221608,63.5654956 761.530204,62.8455681 C759.504684,60.7344292 758.375083,58.0785202 758.141369,54.8777613 C757.966084,52.5331324 758.586877,50.7552299 760.003768,49.5440005 C761.420658,48.332771 762.995769,47.83418 764.729147,48.0482126 C767.017596,48.3303463 768.892148,49.1183633 770.35286,50.4122871 C770.528146,50.5679471 770.606049,50.7090119 770.586573,50.8354856 C770.567097,50.9619594 770.489194,51.0276275 770.35286,51.0324919 C770.216527,51.0373562 770.085065,50.9911454 769.95847,50.8938579 C767.046784,48.6562452 764.587956,48.5492306 762.581912,50.5728107 C761.578889,51.5943295 761.077386,52.9271483 761.077386,54.5713072 C761.077386,57.3342723 761.783386,59.790745 763.195408,61.9407988 C763.633621,62.6023539 764.256849,63.1179699 765.06511,63.4876624 C765.172228,63.5363062 765.313428,63.5508991 765.488714,63.5314416 C767.251306,63.3368666 768.721734,62.8309791 769.900042,62.0137641 C770.124018,61.8581041 770.30417,61.8045968 770.440503,61.8532405 L772.894487,62.7871959 C773.245057,62.9720421 773.269402,63.1520213 772.967522,63.3271388 L771.083213,64.4216178 C770.703428,65.0248003 770.445372,66.1095397 770.309039,67.6758686 C771.945037,69.1351812 773.459285,70.7963404 774.851831,72.6593961 C776.244376,74.5224518 776.945508,75.9549889 776.955246,76.9570502 C776.964984,77.706164 776.680149,78.3677091 776.100733,78.9417053 C775.521318,79.5157016 774.842097,79.9437602 774.06305,80.225894 C773.897503,80.2842665 773.731958,80.2988594 773.566411,80.2696731 C772.631555,80.1431994 771.501955,79.5594831 770.177576,78.5185068 C770.070457,78.4017618 769.968209,78.2850186 769.870828,78.1682735 C769.415711,79.3872049 769.167619,80.4570154 769.126545,81.3777366 C769.126609,81.3924106 769.126384,81.4073398 769.125869,81.4225243 C769.077178,82.5997031 769.393661,83.4850061 770.075327,84.0784599 C770.114279,84.1076462 770.182444,84.1125105 770.279825,84.093053 C770.854372,83.976308 771.433779,83.7087714 772.018064,83.2904351 C772.261516,83.1153176 772.504964,83.0861318 772.748416,83.2028768 L774.603511,84.0492738 C774.983296,84.2243913 774.988165,84.4092348 774.618118,84.6038098 C773.167144,85.3918386 771.414316,85.5377677 769.359581,85.0416014 C767.402227,84.5648926 766.423565,83.3585457 766.423565,81.4225243 C766.423565,81.4165216 766.423963,81.4105228 766.42476,81.4045277 Z M766.42476,131.166838 C766.424286,131.163136 766.423887,131.159406 766.423565,131.155648 C766.258018,129.521218 766.827687,127.468483 768.132589,124.99738 C767.655423,123.742371 767.358416,122.312266 767.241559,120.707022 C767.08575,118.381851 767.236688,116.261015 767.694378,114.344451 C764.276312,113.906658 762.221608,113.327806 761.530204,112.607878 C759.504684,110.496739 758.375083,107.84083 758.141369,104.640071 C757.966084,102.295442 758.586877,100.51754 760.003768,99.3063105 C761.420658,98.0950811 762.995769,97.5964901 764.729147,97.8105226 C767.017596,98.0926564 768.892148,98.8806734 770.35286,100.174597 C770.528146,100.330257 770.606049,100.471322 770.586573,100.597796 C770.567097,100.724269 770.489194,100.789938 770.35286,100.794802 C770.216527,100.799666 770.085065,100.753455 769.95847,100.656168 C767.046784,98.4185553 764.587956,98.3115406 762.581912,100.335121 C761.578889,101.35664 761.077386,102.689458 761.077386,104.333617 C761.077386,107.096582 761.783386,109.553055 763.195408,111.703109 C763.633621,112.364664 764.256849,112.88028 765.06511,113.249972 C765.172228,113.298616 765.313428,113.313209 765.488714,113.293752 C767.251306,113.099177 768.721734,112.593289 769.900042,111.776074 C770.124018,111.620414 770.30417,111.566907 770.440503,111.615551 L772.894487,112.549506 C773.245057,112.734352 773.269402,112.914331 772.967522,113.089449 L771.083213,114.183928 C770.703428,114.78711 770.445372,115.87185 770.309039,117.438179 C771.945037,118.897491 773.459285,120.55865 774.851831,122.421706 C776.244376,124.284762 776.945508,125.717299 776.955246,126.71936 C776.964984,127.468474 776.680149,128.130019 776.100733,128.704015 C775.521318,129.278012 774.842097,129.70607 774.06305,129.988204 C773.897503,130.046577 773.731958,130.061169 773.566411,130.031983 C772.631555,129.905509 771.501955,129.321793 770.177576,128.280817 C770.070457,128.164072 769.968209,128.047329 769.870828,127.930584 C769.415711,129.149515 769.167619,130.219325 769.126545,131.140047 C769.126609,131.154721 769.126384,131.16965 769.125869,131.184834 C769.077178,132.362013 769.393661,133.247316 770.075327,133.84077 C770.114279,133.869956 770.182444,133.874821 770.279825,133.855363 C770.854372,133.738618 771.433779,133.471081 772.018064,133.052745 C772.261516,132.877628 772.504964,132.848442 772.748416,132.965187 L774.603511,133.811584 C774.983296,133.986701 774.988165,134.171545 774.618118,134.36612 C773.167144,135.154149 771.414316,135.300078 769.359581,134.803911 C767.402227,134.327203 766.423565,133.120856 766.423565,131.184834 C766.423565,131.178832 766.423963,131.172833 766.42476,131.166838 Z M17.9758972,457.974577 C17.9763714,457.978279 17.9767697,457.982009 17.9770921,457.985767 C18.1426395,459.620197 17.5729704,461.672932 16.2680677,464.144035 C16.7452336,465.399044 17.0422406,466.829149 17.1590975,468.434393 C17.3149068,470.759564 17.1639688,472.8804 16.7062791,474.796964 C20.1243451,475.234757 22.1790491,475.813609 22.8704528,476.533537 C24.8959734,478.644676 26.0255737,481.300585 26.2592876,484.501344 C26.4345731,486.845973 25.8137798,488.623875 24.3968892,489.835105 C22.9799986,491.046334 21.4048878,491.544925 19.6715096,491.330892 C17.3830608,491.048759 15.5085085,490.260742 14.0477965,488.966818 C13.8725111,488.811158 13.7946076,488.670093 13.8140838,488.543619 C13.83356,488.417146 13.9114634,488.351478 14.0477965,488.346613 C14.1841297,488.341749 14.3155918,488.38796 14.4421868,488.485247 C17.3538727,490.72286 19.812701,490.829874 21.8187454,488.806294 C22.8217677,487.784776 23.3232712,486.451957 23.3232712,484.807798 C23.3232712,482.044833 22.617271,479.58836 21.2052495,477.438306 C20.7670359,476.776751 20.1438081,476.261135 19.3355475,475.891443 C19.2284286,475.842799 19.0872286,475.828206 18.9119431,475.847663 C17.1493507,476.042238 15.6789227,476.548126 14.500615,477.365341 C14.2766392,477.521001 14.0964874,477.574508 13.9601543,477.525865 L11.5061704,476.591909 C11.1555995,476.407063 11.1312547,476.227084 11.4331352,476.051966 L13.3174442,474.957487 C13.6972293,474.354305 13.9552846,473.269565 14.0916177,471.703236 C12.4556203,470.243924 10.9413716,468.582765 9.54882614,466.719709 C8.15628072,464.856653 7.45514949,463.424116 7.44541141,462.422055 C7.43567333,461.672941 7.72050789,461.011396 8.29992364,460.4374 C8.8793394,459.863403 9.55856028,459.435345 10.3376067,459.153211 C10.503154,459.094839 10.6686989,459.080246 10.8342463,459.109432 C11.7691019,459.235906 12.8987022,459.819622 14.2230811,460.860598 C14.3302,460.977343 14.4324483,461.094086 14.5298291,461.210831 C14.9849458,459.9919 15.2330376,458.92209 15.2741117,458.001368 C15.2740477,457.986694 15.2742733,457.971765 15.2747885,457.956581 C15.3234789,456.779402 15.006996,455.894099 14.3253304,455.300645 C14.2863781,455.271459 14.2182126,455.266595 14.1208318,455.286052 C13.5462851,455.402797 12.966878,455.670334 12.3825932,456.08867 C12.1391412,456.263787 11.8956929,456.292973 11.6522409,456.176228 L9.79714594,455.329831 C9.41736082,455.154714 9.41249186,454.96987 9.78253889,454.775295 C11.2335128,453.987266 12.9863409,453.841337 15.0410757,454.337504 C16.9984298,454.814212 17.9770921,456.020559 17.9770921,457.956581 C17.9770921,457.962583 17.9766938,457.968582 17.9758972,457.974577 Z M17.9758972,408.212267 C17.9763714,408.215969 17.9767697,408.219699 17.9770921,408.223457 C18.1426395,409.857887 17.5729704,411.910622 16.2680677,414.381725 C16.7452336,415.636734 17.0422406,417.066839 17.1590975,418.672083 C17.3149068,420.997254 17.1639688,423.11809 16.7062791,425.034654 C20.1243451,425.472447 22.1790491,426.051299 22.8704528,426.771227 C24.8959734,428.882366 26.0255737,431.538275 26.2592876,434.739034 C26.4345731,437.083663 25.8137798,438.861565 24.3968892,440.072794 C22.9799986,441.284024 21.4048878,441.782615 19.6715096,441.568582 C17.3830608,441.286449 15.5085085,440.498432 14.0477965,439.204508 C13.8725111,439.048848 13.7946076,438.907783 13.8140838,438.781309 C13.83356,438.654836 13.9114634,438.589167 14.0477965,438.584303 C14.1841297,438.579439 14.3155918,438.62565 14.4421868,438.722937 C17.3538727,440.96055 19.812701,441.067564 21.8187454,439.043984 C22.8217677,438.022465 23.3232712,436.689647 23.3232712,435.045488 C23.3232712,432.282523 22.617271,429.82605 21.2052495,427.675996 C20.7670359,427.014441 20.1438081,426.498825 19.3355475,426.129133 C19.2284286,426.080489 19.0872286,426.065896 18.9119431,426.085353 C17.1493507,426.279928 15.6789227,426.785816 14.500615,427.603031 C14.2766392,427.758691 14.0964874,427.812198 13.9601543,427.763554 L11.5061704,426.829599 C11.1555995,426.644753 11.1312547,426.464774 11.4331352,426.289656 L13.3174442,425.195177 C13.6972293,424.591995 13.9552846,423.507255 14.0916177,421.940926 C12.4556203,420.481614 10.9413716,418.820455 9.54882614,416.957399 C8.15628072,415.094343 7.45514949,413.661806 7.44541141,412.659745 C7.43567333,411.910631 7.72050789,411.249086 8.29992364,410.67509 C8.8793394,410.101093 9.55856028,409.673035 10.3376067,409.390901 C10.503154,409.332528 10.6686989,409.317936 10.8342463,409.347122 C11.7691019,409.473596 12.8987022,410.057312 14.2230811,411.098288 C14.3302,411.215033 14.4324483,411.331776 14.5298291,411.448521 C14.9849458,410.22959 15.2330376,409.15978 15.2741117,408.239058 C15.2740477,408.224384 15.2742733,408.209455 15.2747885,408.194271 C15.3234789,407.017092 15.006996,406.131789 14.3253304,405.538335 C14.2863781,405.509149 14.2182126,405.504284 14.1208318,405.523742 C13.5462851,405.640487 12.966878,405.908024 12.3825932,406.32636 C12.1391412,406.501477 11.8956929,406.530663 11.6522409,406.413918 L9.79714594,405.567521 C9.41736082,405.392404 9.41249186,405.20756 9.78253889,405.012985 C11.2335128,404.224956 12.9863409,404.079027 15.0410757,404.575194 C16.9984298,405.051902 17.9770921,406.258249 17.9770921,408.194271 C17.9770921,408.200273 17.9766938,408.206272 17.9758972,408.212267 Z M16.8090403,265.364933 C17.6029055,265.320519 18.2475144,265.133349 18.7428862,264.803418 C19.6701208,264.175279 20.1337311,263.068121 20.1337311,261.481912 C20.1337311,260.77129 20.0321179,260.124127 19.8288884,259.540402 C19.4351313,258.41102 18.7301896,257.846338 17.7140421,257.846338 C16.9519315,257.846338 16.4089358,258.084266 16.0850388,258.560129 C15.7674927,259.042337 15.4912318,259.797361 15.2562477,260.825225 L14.8275626,262.719149 C14.5481221,263.956392 14.240107,264.831967 13.9035081,265.345899 C13.3192234,266.234176 12.4459847,266.678308 11.2837661,266.678308 C10.0262836,266.678308 8.99427429,266.243693 8.18770724,265.37445 C7.38114018,264.505208 6.97786271,263.274328 6.97786271,261.681773 C6.97786271,260.216116 7.33192128,258.97096 8.04004904,257.946269 C8.74817681,256.921578 9.88021161,256.40924 11.4361874,256.40924 L11.4361874,258.188958 C10.6867787,258.28413 10.1120289,258.487162 9.71192081,258.798059 C8.98156482,259.375439 8.6163923,260.355702 8.6163923,261.738877 C8.6163923,262.855568 8.85137288,263.658178 9.32134108,264.14673 C9.79130928,264.635283 10.3374804,264.879555 10.9598707,264.879555 C11.6457702,264.879555 12.1474855,264.594042 12.4650316,264.023007 C12.6682611,263.648661 12.9222941,262.801638 13.2271384,261.481912 L13.6748761,259.521367 C13.8908074,258.575986 14.1861209,257.846341 14.5608253,257.332409 C15.2149702,256.444132 16.1644187,256 17.4091994,256 C18.9588243,256 20.0670435,256.563096 20.7338902,257.689304 C21.400737,258.815513 21.7341554,260.124116 21.7341554,261.615153 C21.7341554,263.353638 21.2895975,264.714586 20.4004685,265.698035 C19.5176904,266.681485 18.3205596,267.163685 16.8090403,267.144651 L16.8090403,265.364933 Z M26.400657,386.15417 L3.01116577,386.15417 L26.400657,386.15417 Z M3.07790442,406.122057 C2.99999978,406.073413 2.98052392,405.99072 3.01947624,405.873975 C3.29214247,405.085946 3.70600466,404.380623 4.26107521,403.757983 C4.33897985,403.670424 4.42662125,403.655831 4.52400205,403.714203 L6.7880943,405.144323 C6.87573702,405.202695 6.86113012,405.302413 6.74427316,405.44348 C6.6274162,405.584547 6.18920918,406.282574 5.42963895,407.537583 C5.38094855,407.615413 5.32252095,407.630006 5.25435439,407.581362 L3.07790442,406.122057 Z M10.9803167,414.250388 C10.9803167,415.933461 11.4818203,417.397616 12.4848425,418.642896 L14.193867,420.569179 C14.2425574,419.197426 14.089185,417.616527 13.733745,415.826437 C13.3783051,414.036347 12.8597602,412.766764 12.1780946,412.01765 C11.3698339,412.679206 10.9705786,413.423444 10.9803167,414.250388 Z M3.07790442,455.884367 C2.99999978,455.835723 2.98052392,455.75303 3.01947624,455.636285 C3.29214247,454.848257 3.70600466,454.142933 4.26107521,453.520293 C4.33897985,453.432734 4.42662125,453.418141 4.52400205,453.476513 L6.7880943,454.906633 C6.87573702,454.965005 6.86113012,455.064723 6.74427316,455.20579 C6.6274162,455.346857 6.18920918,456.044885 5.42963895,457.299893 C5.38094855,457.377723 5.32252095,457.392316 5.25435439,457.343672 L3.07790442,455.884367 Z M10.9803167,464.012698 C10.9803167,465.695771 11.4818203,467.159926 12.4848425,468.405207 L14.193867,470.331489 C14.2425574,468.959736 14.089185,467.378837 13.733745,465.588747 C13.3783051,463.798657 12.8597602,462.529074 12.1780946,461.779961 C11.3698339,462.441516 10.9705786,463.185754 10.9803167,464.012698 Z M777.07032,165.728264 L777.07032,167.964808 L765.733981,175.026576 L777.07032,175.026576 L777.07032,176.825329 L763.076134,176.825329 L763.076134,174.702991 L774.402946,167.536533 L763.076134,167.536533 L763.076134,165.728264 L777.07032,165.728264 Z M775.06979,191.839803 C773.83136,192.76615 772.246829,193.229316 770.316149,193.229316 C768.226695,193.229316 766.489744,192.69953 765.105243,191.639942 C763.479407,190.396354 762.666502,188.622998 762.666502,186.319822 C762.666502,184.168923 763.377794,182.478049 764.800401,181.24715 C766.1722,180.149494 767.905975,179.600673 770.001779,179.600673 C771.894354,179.600673 773.513815,180.070184 774.86021,181.00922 C776.587661,182.214739 777.451373,183.997612 777.451373,186.357891 C777.451373,188.826033 776.65752,190.653319 775.06979,191.839803 Z M766.157903,190.169533 C767.355052,190.915052 768.731594,191.287805 770.287569,191.287805 C771.932458,191.287805 773.256606,190.857949 774.260051,189.998224 C775.263497,189.138498 775.765212,187.963135 775.765212,186.472098 C775.765212,185.025475 775.26826,183.845353 774.274341,182.931696 C773.280421,182.01804 771.814968,181.561218 769.877937,181.561218 C768.328312,181.561218 767.02163,181.953006 765.95785,182.736594 C764.894071,183.520181 764.362189,184.790716 764.362189,186.548235 C764.362189,188.216928 764.960755,189.424015 766.157903,190.169533 Z M767.591617,197.241898 C766.797752,197.286312 766.153143,197.473481 765.657771,197.803413 C764.730536,198.431552 764.266926,199.538709 764.266926,201.124919 C764.266926,201.83554 764.368539,202.482704 764.571769,203.066429 C764.965526,204.19581 765.670467,204.760492 766.686615,204.760492 C767.448726,204.760492 767.991721,204.522564 768.315618,204.046702 C768.633164,203.564494 768.909425,202.80947 769.144409,201.781606 L769.573094,199.887682 C769.852535,198.650438 770.16055,197.774864 770.497149,197.260932 C771.081434,196.372655 771.954672,195.928523 773.116891,195.928523 C774.374373,195.928523 775.406383,196.363138 776.21295,197.23238 C777.019517,198.101623 777.422794,199.332503 777.422794,200.925057 C777.422794,202.390715 777.068736,203.63587 776.360608,204.660562 C775.65248,205.685253 774.520445,206.197591 772.96447,206.197591 L772.96447,204.417873 C773.713878,204.3227 774.288628,204.119668 774.688736,203.808771 C775.419092,203.231391 775.784265,202.251129 775.784265,200.867954 C775.784265,199.751263 775.549284,198.948653 775.079316,198.4601 C774.609348,197.971548 774.063177,197.727275 773.440786,197.727275 C772.754887,197.727275 772.253172,198.012789 771.935625,198.583824 C771.732396,198.958169 771.478363,199.805193 771.173519,201.124919 L770.725781,203.085464 C770.50985,204.030844 770.214536,204.76049 769.839832,205.274422 C769.185687,206.162699 768.236238,206.606831 766.991458,206.606831 C765.441833,206.606831 764.333614,206.043735 763.666767,204.917526 C762.99992,203.791318 762.666502,202.482715 762.666502,200.991678 C762.666502,199.253192 763.111059,197.892245 764.000188,196.908795 C764.882967,195.925346 766.080097,195.443145 767.591617,195.46218 L767.591617,197.241898 Z M767.591617,210.762171 C766.797752,210.806585 766.153143,210.993755 765.657771,211.323686 C764.730536,211.951825 764.266926,213.058982 764.266926,214.645192 C764.266926,215.355814 764.368539,216.002977 764.571769,216.586702 C764.965526,217.716083 765.670467,218.280765 766.686615,218.280765 C767.448726,218.280765 767.991721,218.042838 768.315618,217.566975 C768.633164,217.084767 768.909425,216.329743 769.144409,215.301879 L769.573094,213.407955 C769.852535,212.170711 770.16055,211.295137 770.497149,210.781205 C771.081434,209.892928 771.954672,209.448796 773.116891,209.448796 C774.374373,209.448796 775.406383,209.883411 776.21295,210.752654 C777.019517,211.621896 777.422794,212.852776 777.422794,214.44533 C777.422794,215.910988 777.068736,217.156143 776.360608,218.180835 C775.65248,219.205526 774.520445,219.717864 772.96447,219.717864 L772.96447,217.938146 C773.713878,217.842973 774.288628,217.639942 774.688736,217.329045 C775.419092,216.751664 775.784265,215.771402 775.784265,214.388227 C775.784265,213.271536 775.549284,212.468926 775.079316,211.980373 C774.609348,211.491821 774.063177,211.247548 773.440786,211.247548 C772.754887,211.247548 772.253172,211.533062 771.935625,212.104097 C771.732396,212.478443 771.478363,213.325466 771.173519,214.645192 L770.725781,216.605737 C770.50985,217.551117 770.214536,218.280763 769.839832,218.794695 C769.185687,219.682972 768.236238,220.127104 766.991458,220.127104 C765.441833,220.127104 764.333614,219.564008 763.666767,218.437799 C762.99992,217.311591 762.666502,216.002988 762.666502,214.511951 C762.666502,212.773465 763.111059,211.412518 764.000188,210.429068 C764.882967,209.445619 766.080097,208.963418 767.591617,208.982453 L767.591617,210.762171 Z M777.07032,228.980265 L777.07032,231.216809 L765.733981,238.278577 L777.07032,238.278577 L777.07032,240.07733 L763.076134,240.07733 L763.076134,237.954992 L774.402946,230.788534 L763.076134,230.788534 L763.076134,228.980265 L777.07032,228.980265 Z M775.06979,255.091805 C773.83136,256.018151 772.246829,256.481317 770.316149,256.481317 C768.226695,256.481317 766.489744,255.951531 765.105243,254.891943 C763.479407,253.648355 762.666502,251.875 762.666502,249.571824 C762.666502,247.420924 763.377794,245.73005 764.800401,244.499152 C766.1722,243.401495 767.905975,242.852675 770.001779,242.852675 C771.894354,242.852675 773.513815,243.322186 774.86021,244.261221 C776.587661,245.466741 777.451373,247.249613 777.451373,249.609893 C777.451373,252.078034 776.65752,253.90532 775.06979,255.091805 Z M766.157903,253.421534 C767.355052,254.167053 768.731594,254.539806 770.287569,254.539806 C771.932458,254.539806 773.256606,254.10995 774.260051,253.250225 C775.263497,252.390499 775.765212,251.215136 775.765212,249.724099 C775.765212,248.277476 775.26826,247.097354 774.274341,246.183698 C773.280421,245.270041 771.814968,244.81322 769.877937,244.81322 C768.328312,244.81322 767.02163,245.205007 765.95785,245.988595 C764.894071,246.772182 764.362189,248.042717 764.362189,249.800237 C764.362189,251.468929 764.960755,252.676016 766.157903,253.421534 Z M767.591617,260.493899 C766.797752,260.538313 766.153143,260.725483 765.657771,261.055414 C764.730536,261.683553 764.266926,262.790711 764.266926,264.37692 C764.266926,265.087542 764.368539,265.734705 764.571769,266.31843 C764.965526,267.447811 765.670467,268.012494 766.686615,268.012494 C767.448726,268.012494 767.991721,267.774566 768.315618,267.298703 C768.633164,266.816495 768.909425,266.061471 769.144409,265.033607 L769.573094,263.139683 C769.852535,261.90244 770.16055,261.026865 770.497149,260.512933 C771.081434,259.624656 771.954672,259.180524 773.116891,259.180524 C774.374373,259.180524 775.406383,259.615139 776.21295,260.484382 C777.019517,261.353624 777.422794,262.584504 777.422794,264.177059 C777.422794,265.642716 777.068736,266.887872 776.360608,267.912563 C775.65248,268.937254 774.520445,269.449592 772.96447,269.449592 L772.96447,267.669874 C773.713878,267.574701 774.288628,267.37167 774.688736,267.060773 C775.419092,266.483392 775.784265,265.50313 775.784265,264.119955 C775.784265,263.003264 775.549284,262.200654 775.079316,261.712102 C774.609348,261.223549 774.063177,260.979277 773.440786,260.979277 C772.754887,260.979277 772.253172,261.26479 771.935625,261.835825 C771.732396,262.210171 771.478363,263.057194 771.173519,264.37692 L770.725781,266.337465 C770.50985,267.282846 770.214536,268.012491 769.839832,268.526423 C769.185687,269.4147 768.236238,269.858832 766.991458,269.858832 C765.441833,269.858832 764.333614,269.295736 763.666767,268.169527 C762.99992,267.043319 762.666502,265.734716 762.666502,264.243679 C762.666502,262.505194 763.111059,261.144246 764.000188,260.160797 C764.882967,259.177347 766.080097,258.695146 767.591617,258.714181 L767.591617,260.493899 Z M767.591617,274.014172 C766.797752,274.058586 766.153143,274.245756 765.657771,274.575687 C764.730536,275.203826 764.266926,276.310984 764.266926,277.897193 C764.266926,278.607815 764.368539,279.254978 764.571769,279.838704 C764.965526,280.968085 765.670467,281.532767 766.686615,281.532767 C767.448726,281.532767 767.991721,281.294839 768.315618,280.818976 C768.633164,280.336768 768.909425,279.581744 769.144409,278.55388 L769.573094,276.659956 C769.852535,275.422713 770.16055,274.547138 770.497149,274.033206 C771.081434,273.144929 771.954672,272.700797 773.116891,272.700797 C774.374373,272.700797 775.406383,273.135412 776.21295,274.004655 C777.019517,274.873898 777.422794,276.104777 777.422794,277.697332 C777.422794,279.162989 777.068736,280.408145 776.360608,281.432836 C775.65248,282.457527 774.520445,282.969865 772.96447,282.969865 L772.96447,281.190147 C773.713878,281.094975 774.288628,280.891943 774.688736,280.581046 C775.419092,280.003666 775.784265,279.023403 775.784265,277.640228 C775.784265,276.523537 775.549284,275.720927 775.079316,275.232375 C774.609348,274.743822 774.063177,274.49955 773.440786,274.49955 C772.754887,274.49955 772.253172,274.785063 771.935625,275.356098 C771.732396,275.730444 771.478363,276.577467 771.173519,277.897193 L770.725781,279.857738 C770.50985,280.803119 770.214536,281.532764 769.839832,282.046696 C769.185687,282.934973 768.236238,283.379105 766.991458,283.379105 C765.441833,283.379105 764.333614,282.816009 763.666767,281.689801 C762.99992,280.563592 762.666502,279.254989 762.666502,277.763952 C762.666502,276.025467 763.111059,274.664519 764.000188,273.68107 C764.882967,272.69762 766.080097,272.21542 767.591617,272.234454 L767.591617,274.014172 Z M758,153.224935 L781.389491,153.224935 L758,153.224935 Z M781.322753,133.257048 C781.400657,133.305692 781.420133,133.388385 781.381181,133.50513 C781.108515,134.293159 780.694652,134.998482 780.139582,135.621122 C780.061677,135.708681 779.974036,135.723274 779.876655,135.664902 L777.612563,134.234782 C777.52492,134.17641 777.539527,134.076692 777.656384,133.935625 C777.773241,133.794558 778.211448,133.096531 778.971018,131.841522 C779.019708,131.763692 779.078136,131.749099 779.146303,131.797743 L781.322753,133.257048 Z M773.42034,125.128717 C773.42034,123.445644 772.918837,121.981489 771.915814,120.736209 L770.20679,118.809926 C770.1581,120.181679 770.311472,121.762578 770.666912,123.552668 C771.022352,125.342758 771.540897,126.612341 772.222562,127.361455 C773.030823,126.6999 773.430078,125.955661 773.42034,125.128717 Z M781.322753,83.4947378 C781.400657,83.5433816 781.420133,83.6260747 781.381181,83.7428197 C781.108515,84.5308485 780.694652,85.2361723 780.139582,85.8588124 C780.061677,85.9463711 779.974036,85.960964 779.876655,85.9025915 L777.612563,84.4724724 C777.52492,84.4140999 777.539527,84.3143817 777.656384,84.1733148 C777.773241,84.0322479 778.211448,83.3342205 778.971018,82.0792117 C779.019708,82.0013817 779.078136,81.9867888 779.146303,82.0354325 L781.322753,83.4947378 Z M773.42034,75.3664074 C773.42034,73.6833336 772.918837,72.2191786 771.915814,70.9738985 L770.20679,69.0476155 C770.1581,70.4193694 770.311472,72.0002676 770.666912,73.7903577 C771.022352,75.5804478 771.540897,76.8500307 772.222562,77.5991445 C773.030823,76.9375895 773.430078,76.1933512 773.42034,75.3664074 Z M0,387 L28,387 L28,389 L0,389 L0,387 Z M786,152 L758,152 L758,150 L786,150 L786,152 Z M68.8570618,0.352474389 L70.7700207,0.352474389 L70.7700207,6.13495964 L78.0411678,6.13495964 L78.0411678,0.352474389 L79.9541267,0.352474389 L79.9541267,14.3466603 L78.0411678,14.3466603 L78.0411678,7.80206824 L70.7700207,7.80206824 L70.7700207,14.3466603 L68.8570618,14.3466603 L68.8570618,0.352474389 Z M87.4690413,0.352474389 L89.6104132,0.352474389 L94.6830853,14.3466603 L92.6083338,14.3466603 L91.1902698,10.155073 L85.6607717,10.155073 L84.1475356,14.3466603 L82.2060251,14.3466603 L87.4690413,0.352474389 Z M90.5811685,8.61180671 L88.458831,2.42921539 L86.2032526,8.61180671 L90.5811685,8.61180671 Z M98.1627035,9.83117757 C98.2071174,10.6250428 98.3942873,11.2696517 98.7242188,11.7650235 C99.3523577,12.6922581 100.459515,13.1558684 102.045725,13.1558684 C102.756346,13.1558684 103.40351,13.0542552 103.987235,12.8510257 C105.116616,12.4572686 105.681298,11.7523268 105.681298,10.7361794 C105.681298,9.97406878 105.44337,9.43107312 104.967508,9.10717612 C104.4853,8.78963003 103.730276,8.51336909 102.702412,8.27838499 L100.808487,7.84969992 C99.5712442,7.57025936 98.6956698,7.26224428 98.181738,6.92564544 C97.2934607,6.34136064 96.8493288,5.46812202 96.8493288,4.30590335 C96.8493288,3.04842086 97.2839436,2.01641158 98.1531863,1.20984453 C99.022429,0.403277476 100.253309,0 101.845863,0 C103.311521,0 104.556676,0.354058571 105.581367,1.06218634 C106.606059,1.7703141 107.118397,2.9023489 107.118397,4.45832471 L105.338679,4.45832471 C105.243506,3.70891595 105.040474,3.13416617 104.729577,2.7340581 C104.152197,2.00370211 103.171934,1.63852959 101.78876,1.63852959 C100.672069,1.63852959 99.8694587,1.87351017 99.3809062,2.34347837 C98.8923537,2.81344658 98.6480812,3.35961765 98.6480812,3.98200797 C98.6480812,4.66790751 98.9335946,5.16962279 99.5046299,5.48716887 C99.8789753,5.69039837 100.725998,5.94443142 102.045725,6.24927566 L104.006269,6.6970134 C104.95165,6.91294474 105.681296,7.20825816 106.195227,7.58296254 C107.083505,8.23710747 107.527637,9.18655602 107.527637,10.4313367 C107.527637,11.9809615 106.964541,13.0891808 105.838332,13.7560275 C104.712123,14.4228743 103.40352,14.7562927 101.912484,14.7562927 C100.173998,14.7562927 98.813051,14.3117348 97.8296012,13.4226058 C96.8461515,12.5398277 96.3639511,11.3426969 96.3829856,9.83117757 L98.1627035,9.83117757 Z M111.682977,9.83117757 C111.72739,10.6250428 111.91456,11.2696517 112.244492,11.7650235 C112.872631,12.6922581 113.979788,13.1558684 115.565998,13.1558684 C116.276619,13.1558684 116.923783,13.0542552 117.507508,12.8510257 C118.636889,12.4572686 119.201571,11.7523268 119.201571,10.7361794 C119.201571,9.97406878 118.963643,9.43107312 118.487781,9.10717612 C118.005573,8.78963003 117.250549,8.51336909 116.222685,8.27838499 L114.328761,7.84969992 C113.091517,7.57025936 112.215943,7.26224428 111.702011,6.92564544 C110.813734,6.34136064 110.369602,5.46812202 110.369602,4.30590335 C110.369602,3.04842086 110.804217,2.01641158 111.673459,1.20984453 C112.542702,0.403277476 113.773582,0 115.366136,0 C116.831794,0 118.076949,0.354058571 119.101641,1.06218634 C120.126332,1.7703141 120.63867,2.9023489 120.63867,4.45832471 L118.858952,4.45832471 C118.763779,3.70891595 118.560747,3.13416617 118.24985,2.7340581 C117.67247,2.00370211 116.692208,1.63852959 115.309033,1.63852959 C114.192342,1.63852959 113.389732,1.87351017 112.901179,2.34347837 C112.412627,2.81344658 112.168354,3.35961765 112.168354,3.98200797 C112.168354,4.66790751 112.453868,5.16962279 113.024903,5.48716887 C113.399248,5.69039837 114.246271,5.94443142 115.565998,6.24927566 L117.526543,6.6970134 C118.471923,6.91294474 119.201569,7.20825816 119.7155,7.58296254 C120.603778,8.23710747 121.04791,9.18655602 121.04791,10.4313367 C121.04791,11.9809615 120.484814,13.0891808 119.358605,13.7560275 C118.232397,14.4228743 116.923793,14.7562927 115.432757,14.7562927 C113.694271,14.7562927 112.333324,14.3117348 111.349874,13.4226058 C110.366425,12.5398277 109.884224,11.3426969 109.903259,9.83117757 L111.682977,9.83117757 Z M128.029861,0.352474389 L130.171232,0.352474389 L135.243905,14.3466603 L133.169153,14.3466603 L131.751089,10.155073 L126.221591,10.155073 L124.708355,14.3466603 L122.766844,14.3466603 L128.029861,0.352474389 Z M131.141988,8.61180671 L129.01965,2.42921539 L126.764072,8.61180671 L131.141988,8.61180671 Z M137.486286,0.352474389 L139.72283,0.352474389 L146.784598,11.6888129 L146.784598,0.352474389 L148.583351,0.352474389 L148.583351,14.3466603 L146.461013,14.3466603 L139.294555,3.01984815 L139.294555,14.3466603 L137.486286,14.3466603 L137.486286,0.352474389 Z M158.064647,0.352474389 L159.977606,0.352474389 L159.977606,6.13495964 L167.248753,6.13495964 L167.248753,0.352474389 L169.161712,0.352474389 L169.161712,14.3466603 L167.248753,14.3466603 L167.248753,7.80206824 L159.977606,7.80206824 L159.977606,14.3466603 L158.064647,14.3466603 L158.064647,0.352474389 Z M176.676627,0.352474389 L178.817999,0.352474389 L183.890671,14.3466603 L181.815919,14.3466603 L180.397855,10.155073 L174.868357,10.155073 L173.355121,14.3466603 L171.413611,14.3466603 L176.676627,0.352474389 Z M179.788754,8.61180671 L177.666417,2.42921539 L175.410838,8.61180671 L179.788754,8.61180671 Z M192.994959,10.1741256 C192.994959,11.355397 192.820479,12.2730915 192.471513,12.9272364 C191.824339,14.1212097 190.593459,14.7181873 188.778836,14.7181873 C187.731938,14.7181873 186.837329,14.4339879 186.094983,13.8655804 C185.352637,13.2971729 184.98147,12.2858038 184.98147,10.8314427 L184.98147,9.83117757 L186.761188,9.83117757 L186.761188,10.8314427 C186.761188,11.5935533 186.93091,12.1667154 187.270358,12.5509462 C187.609807,12.9351769 188.138007,13.1272894 188.854974,13.1272894 C189.863803,13.1272894 190.523656,12.7811694 190.834553,12.0889189 C191.024898,11.6634072 191.120069,10.8600276 191.120069,9.67875621 L191.120069,0.352474389 L192.994959,0.352474389 L192.994959,10.1741256 Z M203.260347,10.1741256 C203.260347,11.355397 203.085867,12.2730915 202.736901,12.9272364 C202.089727,14.1212097 200.858847,14.7181873 199.044224,14.7181873 C197.997326,14.7181873 197.102717,14.4339879 196.360371,13.8655804 C195.618025,13.2971729 195.246858,12.2858038 195.246858,10.8314427 L195.246858,9.83117757 L197.026576,9.83117757 L197.026576,10.8314427 C197.026576,11.5935533 197.196298,12.1667154 197.535746,12.5509462 C197.875195,12.9351769 198.403395,13.1272894 199.120362,13.1272894 C200.129191,13.1272894 200.789044,12.7811694 201.099941,12.0889189 C201.290286,11.6634072 201.385457,10.8600276 201.385457,9.67875621 L201.385457,0.352474389 L203.260347,0.352474389 L203.260347,10.1741256 Z M210.727676,0.352474389 L212.869048,0.352474389 L217.94172,14.3466603 L215.866968,14.3466603 L214.448904,10.155073 L208.919406,10.155073 L207.40617,14.3466603 L205.464659,14.3466603 L210.727676,0.352474389 Z M213.839803,8.61180671 L211.717465,2.42921539 L209.461887,8.61180671 L213.839803,8.61180671 Z M227.046008,10.1741256 C227.046008,11.355397 226.871528,12.2730915 226.522562,12.9272364 C225.875388,14.1212097 224.644508,14.7181873 222.829885,14.7181873 C221.782987,14.7181873 220.888378,14.4339879 220.146032,13.8655804 C219.403686,13.2971729 219.032519,12.2858038 219.032519,10.8314427 L219.032519,9.83117757 L220.812237,9.83117757 L220.812237,10.8314427 C220.812237,11.5935533 220.981958,12.1667154 221.321407,12.5509462 C221.660856,12.9351769 222.189056,13.1272894 222.906022,13.1272894 C223.914852,13.1272894 224.574705,12.7811694 224.885602,12.0889189 C225.075947,11.6634072 225.171118,10.8600276 225.171118,9.67875621 L225.171118,0.352474389 L227.046008,0.352474389 L227.046008,10.1741256 Z"/>
      </g>
    </g>
  </g>
</svg>
